<mxfile host="Electron" agent="Mozilla/5.0 (X11; Linux x86_64) AppleWebKit/537.36 (KHTML, like Gecko) draw.io/24.7.17 Chrome/128.0.6613.36 Electron/32.0.1 Safari/537.36" version="24.7.17">
  <diagram name="Page-1" id="nMGDQqc6vMcEVAlNx3Rb">
    <mxGraphModel dx="2234" dy="2435" grid="0" gridSize="10" guides="0" tooltips="1" connect="1" arrows="1" fold="1" page="0" pageScale="1" pageWidth="850" pageHeight="1100" math="0" shadow="0">
      <root>
        <mxCell id="0" />
        <mxCell id="1" parent="0" />
        <mxCell id="RDhP8_hSbDgLvopPwKMN-1" value="UstensilModel" style="swimlane;fontStyle=0;childLayout=stackLayout;horizontal=1;startSize=26;fillColor=none;horizontalStack=0;resizeParent=1;resizeParentMax=0;resizeLast=0;collapsible=1;marginBottom=0;whiteSpace=wrap;html=1;" parent="1" vertex="1">
          <mxGeometry y="-360" width="140" height="156" as="geometry" />
        </mxCell>
        <mxCell id="RDhP8_hSbDgLvopPwKMN-2" value="- isclean: bool" style="text;strokeColor=none;fillColor=none;align=left;verticalAlign=top;spacingLeft=4;spacingRight=4;overflow=hidden;rotatable=0;points=[[0,0.5],[1,0.5]];portConstraint=eastwest;whiteSpace=wrap;html=1;" parent="RDhP8_hSbDgLvopPwKMN-1" vertex="1">
          <mxGeometry y="26" width="140" height="26" as="geometry" />
        </mxCell>
        <mxCell id="RDhP8_hSbDgLvopPwKMN-3" value="- name: string" style="text;strokeColor=none;fillColor=none;align=left;verticalAlign=top;spacingLeft=4;spacingRight=4;overflow=hidden;rotatable=0;points=[[0,0.5],[1,0.5]];portConstraint=eastwest;whiteSpace=wrap;html=1;" parent="RDhP8_hSbDgLvopPwKMN-1" vertex="1">
          <mxGeometry y="52" width="140" height="26" as="geometry" />
        </mxCell>
        <mxCell id="RDhP8_hSbDgLvopPwKMN-4" value="- washTime: int" style="text;strokeColor=none;fillColor=none;align=left;verticalAlign=top;spacingLeft=4;spacingRight=4;overflow=hidden;rotatable=0;points=[[0,0.5],[1,0.5]];portConstraint=eastwest;whiteSpace=wrap;html=1;" parent="RDhP8_hSbDgLvopPwKMN-1" vertex="1">
          <mxGeometry y="78" width="140" height="26" as="geometry" />
        </mxCell>
        <mxCell id="RDhP8_hSbDgLvopPwKMN-5" value="+ getwashTime(): int" style="text;strokeColor=none;fillColor=none;align=left;verticalAlign=top;spacingLeft=4;spacingRight=4;overflow=hidden;rotatable=0;points=[[0,0.5],[1,0.5]];portConstraint=eastwest;whiteSpace=wrap;html=1;" parent="RDhP8_hSbDgLvopPwKMN-1" vertex="1">
          <mxGeometry y="104" width="140" height="26" as="geometry" />
        </mxCell>
        <mxCell id="RDhP8_hSbDgLvopPwKMN-6" value="+ toogleisclean: void" style="text;strokeColor=none;fillColor=none;align=left;verticalAlign=top;spacingLeft=4;spacingRight=4;overflow=hidden;rotatable=0;points=[[0,0.5],[1,0.5]];portConstraint=eastwest;whiteSpace=wrap;html=1;" parent="RDhP8_hSbDgLvopPwKMN-1" vertex="1">
          <mxGeometry y="130" width="140" height="26" as="geometry" />
        </mxCell>
        <mxCell id="RDhP8_hSbDgLvopPwKMN-7" value="UstensilFactory" style="swimlane;fontStyle=0;childLayout=stackLayout;horizontal=1;startSize=26;fillColor=none;horizontalStack=0;resizeParent=1;resizeParentMax=0;resizeLast=0;collapsible=1;marginBottom=0;whiteSpace=wrap;html=1;" parent="1" vertex="1">
          <mxGeometry x="-51" y="-125" width="241" height="186" as="geometry" />
        </mxCell>
        <mxCell id="RDhP8_hSbDgLvopPwKMN-8" value="+ getBigKitchenUstensil(string name)" style="text;strokeColor=none;fillColor=none;align=left;verticalAlign=top;spacingLeft=4;spacingRight=4;overflow=hidden;rotatable=0;points=[[0,0.5],[1,0.5]];portConstraint=eastwest;whiteSpace=wrap;html=1;" parent="RDhP8_hSbDgLvopPwKMN-7" vertex="1">
          <mxGeometry y="26" width="241" height="26" as="geometry" />
        </mxCell>
        <mxCell id="RDhP8_hSbDgLvopPwKMN-9" value="+ getThinyKitchenUstensil(string name)" style="text;strokeColor=none;fillColor=none;align=left;verticalAlign=top;spacingLeft=4;spacingRight=4;overflow=hidden;rotatable=0;points=[[0,0.5],[1,0.5]];portConstraint=eastwest;whiteSpace=wrap;html=1;" parent="RDhP8_hSbDgLvopPwKMN-7" vertex="1">
          <mxGeometry y="52" width="241" height="26" as="geometry" />
        </mxCell>
        <mxCell id="RDhP8_hSbDgLvopPwKMN-10" value="+ createUstensil(int washTime,&lt;span style=&quot;background-color: initial;&quot;&gt;string name)&lt;/span&gt;" style="text;strokeColor=none;fillColor=none;align=left;verticalAlign=top;spacingLeft=4;spacingRight=4;overflow=hidden;rotatable=0;points=[[0,0.5],[1,0.5]];portConstraint=eastwest;whiteSpace=wrap;html=1;" parent="RDhP8_hSbDgLvopPwKMN-7" vertex="1">
          <mxGeometry y="78" width="241" height="30" as="geometry" />
        </mxCell>
        <mxCell id="6IHwoEzametBzIesh1sO-1" value="+ getGlasses(string name)" style="text;strokeColor=none;fillColor=none;align=left;verticalAlign=top;spacingLeft=4;spacingRight=4;overflow=hidden;rotatable=0;points=[[0,0.5],[1,0.5]];portConstraint=eastwest;whiteSpace=wrap;html=1;" parent="RDhP8_hSbDgLvopPwKMN-7" vertex="1">
          <mxGeometry y="108" width="241" height="26" as="geometry" />
        </mxCell>
        <mxCell id="6IHwoEzametBzIesh1sO-2" value="+ getCutlery(string name)" style="text;strokeColor=none;fillColor=none;align=left;verticalAlign=top;spacingLeft=4;spacingRight=4;overflow=hidden;rotatable=0;points=[[0,0.5],[1,0.5]];portConstraint=eastwest;whiteSpace=wrap;html=1;" parent="RDhP8_hSbDgLvopPwKMN-7" vertex="1">
          <mxGeometry y="134" width="241" height="26" as="geometry" />
        </mxCell>
        <mxCell id="6IHwoEzametBzIesh1sO-3" value="+ getPlates(string name)" style="text;strokeColor=none;fillColor=none;align=left;verticalAlign=top;spacingLeft=4;spacingRight=4;overflow=hidden;rotatable=0;points=[[0,0.5],[1,0.5]];portConstraint=eastwest;whiteSpace=wrap;html=1;" parent="RDhP8_hSbDgLvopPwKMN-7" vertex="1">
          <mxGeometry y="160" width="241" height="26" as="geometry" />
        </mxCell>
        <mxCell id="RDhP8_hSbDgLvopPwKMN-11" value="MaterialModel" style="swimlane;fontStyle=0;childLayout=stackLayout;horizontal=1;startSize=26;fillColor=none;horizontalStack=0;resizeParent=1;resizeParentMax=0;resizeLast=0;collapsible=1;marginBottom=0;whiteSpace=wrap;html=1;" parent="1" vertex="1">
          <mxGeometry x="310" y="-63" width="140" height="156" as="geometry" />
        </mxCell>
        <mxCell id="RDhP8_hSbDgLvopPwKMN-12" value="- isActive: bool" style="text;strokeColor=none;fillColor=none;align=left;verticalAlign=top;spacingLeft=4;spacingRight=4;overflow=hidden;rotatable=0;points=[[0,0.5],[1,0.5]];portConstraint=eastwest;whiteSpace=wrap;html=1;" parent="RDhP8_hSbDgLvopPwKMN-11" vertex="1">
          <mxGeometry y="26" width="140" height="26" as="geometry" />
        </mxCell>
        <mxCell id="RDhP8_hSbDgLvopPwKMN-13" value="- name: string" style="text;strokeColor=none;fillColor=none;align=left;verticalAlign=top;spacingLeft=4;spacingRight=4;overflow=hidden;rotatable=0;points=[[0,0.5],[1,0.5]];portConstraint=eastwest;whiteSpace=wrap;html=1;" parent="RDhP8_hSbDgLvopPwKMN-11" vertex="1">
          <mxGeometry y="52" width="140" height="26" as="geometry" />
        </mxCell>
        <mxCell id="RDhP8_hSbDgLvopPwKMN-14" value="- timeleft: int" style="text;strokeColor=none;fillColor=none;align=left;verticalAlign=top;spacingLeft=4;spacingRight=4;overflow=hidden;rotatable=0;points=[[0,0.5],[1,0.5]];portConstraint=eastwest;whiteSpace=wrap;html=1;" parent="RDhP8_hSbDgLvopPwKMN-11" vertex="1">
          <mxGeometry y="78" width="140" height="26" as="geometry" />
        </mxCell>
        <mxCell id="RDhP8_hSbDgLvopPwKMN-15" value="+ getIsActive(): bool" style="text;strokeColor=none;fillColor=none;align=left;verticalAlign=top;spacingLeft=4;spacingRight=4;overflow=hidden;rotatable=0;points=[[0,0.5],[1,0.5]];portConstraint=eastwest;whiteSpace=wrap;html=1;" parent="RDhP8_hSbDgLvopPwKMN-11" vertex="1">
          <mxGeometry y="104" width="140" height="26" as="geometry" />
        </mxCell>
        <mxCell id="RDhP8_hSbDgLvopPwKMN-16" value="+ toogleIsActive(): void" style="text;strokeColor=none;fillColor=none;align=left;verticalAlign=top;spacingLeft=4;spacingRight=4;overflow=hidden;rotatable=0;points=[[0,0.5],[1,0.5]];portConstraint=eastwest;whiteSpace=wrap;html=1;" parent="RDhP8_hSbDgLvopPwKMN-11" vertex="1">
          <mxGeometry y="130" width="140" height="26" as="geometry" />
        </mxCell>
        <mxCell id="RDhP8_hSbDgLvopPwKMN-17" value="StorageModel" style="swimlane;fontStyle=0;childLayout=stackLayout;horizontal=1;startSize=26;fillColor=none;horizontalStack=0;resizeParent=1;resizeParentMax=0;resizeLast=0;collapsible=1;marginBottom=0;whiteSpace=wrap;html=1;" parent="1" vertex="1">
          <mxGeometry x="-67" y="-1024" width="280" height="160" as="geometry" />
        </mxCell>
        <mxCell id="RDhP8_hSbDgLvopPwKMN-18" value="- currentContent: int" style="text;strokeColor=none;fillColor=none;align=left;verticalAlign=top;spacingLeft=4;spacingRight=4;overflow=hidden;rotatable=0;points=[[0,0.5],[1,0.5]];portConstraint=eastwest;whiteSpace=wrap;html=1;" parent="RDhP8_hSbDgLvopPwKMN-17" vertex="1">
          <mxGeometry y="26" width="280" height="26" as="geometry" />
        </mxCell>
        <mxCell id="RDhP8_hSbDgLvopPwKMN-19" value="- Durability: int" style="text;strokeColor=none;fillColor=none;align=left;verticalAlign=top;spacingLeft=4;spacingRight=4;overflow=hidden;rotatable=0;points=[[0,0.5],[1,0.5]];portConstraint=eastwest;whiteSpace=wrap;html=1;" parent="RDhP8_hSbDgLvopPwKMN-17" vertex="1">
          <mxGeometry y="52" width="280" height="26" as="geometry" />
        </mxCell>
        <mxCell id="RDhP8_hSbDgLvopPwKMN-20" value="- name: string" style="text;strokeColor=none;fillColor=none;align=left;verticalAlign=top;spacingLeft=4;spacingRight=4;overflow=hidden;rotatable=0;points=[[0,0.5],[1,0.5]];portConstraint=eastwest;whiteSpace=wrap;html=1;" parent="RDhP8_hSbDgLvopPwKMN-17" vertex="1">
          <mxGeometry y="78" width="280" height="26" as="geometry" />
        </mxCell>
        <mxCell id="RDhP8_hSbDgLvopPwKMN-21" value="+ saveProduct(string name, int quantity): void" style="text;strokeColor=none;fillColor=none;align=left;verticalAlign=top;spacingLeft=4;spacingRight=4;overflow=hidden;rotatable=0;points=[[0,0.5],[1,0.5]];portConstraint=eastwest;whiteSpace=wrap;html=1;" parent="RDhP8_hSbDgLvopPwKMN-17" vertex="1">
          <mxGeometry y="104" width="280" height="26" as="geometry" />
        </mxCell>
        <mxCell id="RDhP8_hSbDgLvopPwKMN-22" value="+ outProduct(string name, int quantiy): void" style="text;strokeColor=none;fillColor=none;align=left;verticalAlign=top;spacingLeft=4;spacingRight=4;overflow=hidden;rotatable=0;points=[[0,0.5],[1,0.5]];portConstraint=eastwest;whiteSpace=wrap;html=1;" parent="RDhP8_hSbDgLvopPwKMN-17" vertex="1">
          <mxGeometry y="130" width="280" height="30" as="geometry" />
        </mxCell>
        <mxCell id="RDhP8_hSbDgLvopPwKMN-24" value="DishwasherModel" style="swimlane;fontStyle=0;childLayout=stackLayout;horizontal=1;startSize=26;fillColor=none;horizontalStack=0;resizeParent=1;resizeParentMax=0;resizeLast=0;collapsible=1;marginBottom=0;whiteSpace=wrap;html=1;" parent="1" vertex="1">
          <mxGeometry x="240" y="198" width="260" height="312" as="geometry" />
        </mxCell>
        <mxCell id="RDhP8_hSbDgLvopPwKMN-25" value="- platesNumber: int" style="text;strokeColor=none;fillColor=none;align=left;verticalAlign=top;spacingLeft=4;spacingRight=4;overflow=hidden;rotatable=0;points=[[0,0.5],[1,0.5]];portConstraint=eastwest;whiteSpace=wrap;html=1;" parent="RDhP8_hSbDgLvopPwKMN-24" vertex="1">
          <mxGeometry y="26" width="260" height="26" as="geometry" />
        </mxCell>
        <mxCell id="RDhP8_hSbDgLvopPwKMN-26" value="- glassesNumber: int" style="text;strokeColor=none;fillColor=none;align=left;verticalAlign=top;spacingLeft=4;spacingRight=4;overflow=hidden;rotatable=0;points=[[0,0.5],[1,0.5]];portConstraint=eastwest;whiteSpace=wrap;html=1;" parent="RDhP8_hSbDgLvopPwKMN-24" vertex="1">
          <mxGeometry y="52" width="260" height="26" as="geometry" />
        </mxCell>
        <mxCell id="RDhP8_hSbDgLvopPwKMN-27" value="- cutleryNumber: int" style="text;strokeColor=none;fillColor=none;align=left;verticalAlign=top;spacingLeft=4;spacingRight=4;overflow=hidden;rotatable=0;points=[[0,0.5],[1,0.5]];portConstraint=eastwest;whiteSpace=wrap;html=1;" parent="RDhP8_hSbDgLvopPwKMN-24" vertex="1">
          <mxGeometry y="78" width="260" height="26" as="geometry" />
        </mxCell>
        <mxCell id="RDhP8_hSbDgLvopPwKMN-28" value="+ releaseDishes(): void" style="text;strokeColor=none;fillColor=none;align=left;verticalAlign=top;spacingLeft=4;spacingRight=4;overflow=hidden;rotatable=0;points=[[0,0.5],[1,0.5]];portConstraint=eastwest;whiteSpace=wrap;html=1;" parent="RDhP8_hSbDgLvopPwKMN-24" vertex="1">
          <mxGeometry y="104" width="260" height="26" as="geometry" />
        </mxCell>
        <mxCell id="RDhP8_hSbDgLvopPwKMN-29" value="+ washDishes(): void" style="text;strokeColor=none;fillColor=none;align=left;verticalAlign=top;spacingLeft=4;spacingRight=4;overflow=hidden;rotatable=0;points=[[0,0.5],[1,0.5]];portConstraint=eastwest;whiteSpace=wrap;html=1;" parent="RDhP8_hSbDgLvopPwKMN-24" vertex="1">
          <mxGeometry y="130" width="260" height="26" as="geometry" />
        </mxCell>
        <mxCell id="RDhP8_hSbDgLvopPwKMN-30" value="+ getPlatesNumber(): int" style="text;strokeColor=none;fillColor=none;align=left;verticalAlign=top;spacingLeft=4;spacingRight=4;overflow=hidden;rotatable=0;points=[[0,0.5],[1,0.5]];portConstraint=eastwest;whiteSpace=wrap;html=1;" parent="RDhP8_hSbDgLvopPwKMN-24" vertex="1">
          <mxGeometry y="156" width="260" height="26" as="geometry" />
        </mxCell>
        <mxCell id="RDhP8_hSbDgLvopPwKMN-31" value="+ getGlassesNumber(): int" style="text;strokeColor=none;fillColor=none;align=left;verticalAlign=top;spacingLeft=4;spacingRight=4;overflow=hidden;rotatable=0;points=[[0,0.5],[1,0.5]];portConstraint=eastwest;whiteSpace=wrap;html=1;" parent="RDhP8_hSbDgLvopPwKMN-24" vertex="1">
          <mxGeometry y="182" width="260" height="26" as="geometry" />
        </mxCell>
        <mxCell id="RDhP8_hSbDgLvopPwKMN-32" value="+ getCutleryNumber(): int" style="text;strokeColor=none;fillColor=none;align=left;verticalAlign=top;spacingLeft=4;spacingRight=4;overflow=hidden;rotatable=0;points=[[0,0.5],[1,0.5]];portConstraint=eastwest;whiteSpace=wrap;html=1;" parent="RDhP8_hSbDgLvopPwKMN-24" vertex="1">
          <mxGeometry y="208" width="260" height="26" as="geometry" />
        </mxCell>
        <mxCell id="RDhP8_hSbDgLvopPwKMN-33" value="+ setCutleryNumber(int cutleryNumber): void" style="text;strokeColor=none;fillColor=none;align=left;verticalAlign=top;spacingLeft=4;spacingRight=4;overflow=hidden;rotatable=0;points=[[0,0.5],[1,0.5]];portConstraint=eastwest;whiteSpace=wrap;html=1;" parent="RDhP8_hSbDgLvopPwKMN-24" vertex="1">
          <mxGeometry y="234" width="260" height="26" as="geometry" />
        </mxCell>
        <mxCell id="RDhP8_hSbDgLvopPwKMN-34" value="+ setGlassesNumber(int glassesNumber): void" style="text;strokeColor=none;fillColor=none;align=left;verticalAlign=top;spacingLeft=4;spacingRight=4;overflow=hidden;rotatable=0;points=[[0,0.5],[1,0.5]];portConstraint=eastwest;whiteSpace=wrap;html=1;" parent="RDhP8_hSbDgLvopPwKMN-24" vertex="1">
          <mxGeometry y="260" width="260" height="26" as="geometry" />
        </mxCell>
        <mxCell id="RDhP8_hSbDgLvopPwKMN-35" value="+ setplatesNumber(int platesNumber): void" style="text;strokeColor=none;fillColor=none;align=left;verticalAlign=top;spacingLeft=4;spacingRight=4;overflow=hidden;rotatable=0;points=[[0,0.5],[1,0.5]];portConstraint=eastwest;whiteSpace=wrap;html=1;" parent="RDhP8_hSbDgLvopPwKMN-24" vertex="1">
          <mxGeometry y="286" width="260" height="26" as="geometry" />
        </mxCell>
        <mxCell id="RDhP8_hSbDgLvopPwKMN-36" value="WashingMachine" style="swimlane;fontStyle=0;childLayout=stackLayout;horizontal=1;startSize=26;fillColor=none;horizontalStack=0;resizeParent=1;resizeParentMax=0;resizeLast=0;collapsible=1;marginBottom=0;whiteSpace=wrap;html=1;" parent="1" vertex="1">
          <mxGeometry x="620" y="-50" width="260" height="130" as="geometry" />
        </mxCell>
        <mxCell id="RDhP8_hSbDgLvopPwKMN-37" value="- towelsNumber: int" style="text;strokeColor=none;fillColor=none;align=left;verticalAlign=top;spacingLeft=4;spacingRight=4;overflow=hidden;rotatable=0;points=[[0,0.5],[1,0.5]];portConstraint=eastwest;whiteSpace=wrap;html=1;" parent="RDhP8_hSbDgLvopPwKMN-36" vertex="1">
          <mxGeometry y="26" width="260" height="26" as="geometry" />
        </mxCell>
        <mxCell id="RDhP8_hSbDgLvopPwKMN-38" value="- washTowels(): int" style="text;strokeColor=none;fillColor=none;align=left;verticalAlign=top;spacingLeft=4;spacingRight=4;overflow=hidden;rotatable=0;points=[[0,0.5],[1,0.5]];portConstraint=eastwest;whiteSpace=wrap;html=1;" parent="RDhP8_hSbDgLvopPwKMN-36" vertex="1">
          <mxGeometry y="52" width="260" height="26" as="geometry" />
        </mxCell>
        <mxCell id="RDhP8_hSbDgLvopPwKMN-39" value="+ getTowelsNumber(): int" style="text;strokeColor=none;fillColor=none;align=left;verticalAlign=top;spacingLeft=4;spacingRight=4;overflow=hidden;rotatable=0;points=[[0,0.5],[1,0.5]];portConstraint=eastwest;whiteSpace=wrap;html=1;" parent="RDhP8_hSbDgLvopPwKMN-36" vertex="1">
          <mxGeometry y="78" width="260" height="26" as="geometry" />
        </mxCell>
        <mxCell id="RDhP8_hSbDgLvopPwKMN-40" value="+ setTowelsNumber(int towelsNumber): void" style="text;strokeColor=none;fillColor=none;align=left;verticalAlign=top;spacingLeft=4;spacingRight=4;overflow=hidden;rotatable=0;points=[[0,0.5],[1,0.5]];portConstraint=eastwest;whiteSpace=wrap;html=1;" parent="RDhP8_hSbDgLvopPwKMN-36" vertex="1">
          <mxGeometry y="104" width="260" height="26" as="geometry" />
        </mxCell>
        <mxCell id="QPSsTkSLT6bYCm1fLewV-2" value="" style="endArrow=block;endSize=16;endFill=0;html=1;rounded=0;edgeStyle=orthogonalEdgeStyle;curved=1;" parent="1" source="RDhP8_hSbDgLvopPwKMN-36" target="RDhP8_hSbDgLvopPwKMN-11" edge="1">
          <mxGeometry x="-0.1466" y="5" width="160" relative="1" as="geometry">
            <mxPoint x="690" y="140" as="sourcePoint" />
            <mxPoint x="450" y="100" as="targetPoint" />
            <mxPoint as="offset" />
          </mxGeometry>
        </mxCell>
        <mxCell id="DPu7RmlXeF-RaSwFlGZn-1" value="Client" style="swimlane;fontStyle=1;align=center;verticalAlign=top;childLayout=stackLayout;horizontal=1;startSize=26;horizontalStack=0;resizeParent=1;resizeParentMax=0;resizeLast=0;collapsible=1;marginBottom=0;" parent="1" vertex="1">
          <mxGeometry x="1010" y="-318" width="280" height="372" as="geometry" />
        </mxCell>
        <mxCell id="DPu7RmlXeF-RaSwFlGZn-2" value="- Type : string" style="text;strokeColor=none;fillColor=none;align=left;verticalAlign=top;spacingLeft=4;spacingRight=4;overflow=hidden;rotatable=0;points=[[0,0.5],[1,0.5]];portConstraint=eastwest;" parent="DPu7RmlXeF-RaSwFlGZn-1" vertex="1">
          <mxGeometry y="26" width="280" height="26" as="geometry" />
        </mxCell>
        <mxCell id="DPu7RmlXeF-RaSwFlGZn-6" value="- id : int" style="text;strokeColor=none;fillColor=none;align=left;verticalAlign=top;spacingLeft=4;spacingRight=4;overflow=hidden;rotatable=0;points=[[0,0.5],[1,0.5]];portConstraint=eastwest;" parent="DPu7RmlXeF-RaSwFlGZn-1" vertex="1">
          <mxGeometry y="52" width="280" height="26" as="geometry" />
        </mxCell>
        <mxCell id="DPu7RmlXeF-RaSwFlGZn-8" value="- id : int" style="text;strokeColor=none;fillColor=none;align=left;verticalAlign=top;spacingLeft=4;spacingRight=4;overflow=hidden;rotatable=0;points=[[0,0.5],[1,0.5]];portConstraint=eastwest;" parent="DPu7RmlXeF-RaSwFlGZn-1" vertex="1">
          <mxGeometry y="78" width="280" height="26" as="geometry" />
        </mxCell>
        <mxCell id="DPu7RmlXeF-RaSwFlGZn-9" value="- hasOrdered : bool" style="text;strokeColor=none;fillColor=none;align=left;verticalAlign=top;spacingLeft=4;spacingRight=4;overflow=hidden;rotatable=0;points=[[0,0.5],[1,0.5]];portConstraint=eastwest;" parent="DPu7RmlXeF-RaSwFlGZn-1" vertex="1">
          <mxGeometry y="104" width="280" height="26" as="geometry" />
        </mxCell>
        <mxCell id="DPu7RmlXeF-RaSwFlGZn-10" value="- choice: Recipe[]" style="text;strokeColor=none;fillColor=none;align=left;verticalAlign=top;spacingLeft=4;spacingRight=4;overflow=hidden;rotatable=0;points=[[0,0.5],[1,0.5]];portConstraint=eastwest;" parent="DPu7RmlXeF-RaSwFlGZn-1" vertex="1">
          <mxGeometry y="130" width="280" height="26" as="geometry" />
        </mxCell>
        <mxCell id="DPu7RmlXeF-RaSwFlGZn-12" value="- orderTimeLeft : int" style="text;strokeColor=none;fillColor=none;align=left;verticalAlign=top;spacingLeft=4;spacingRight=4;overflow=hidden;rotatable=0;points=[[0,0.5],[1,0.5]];portConstraint=eastwest;" parent="DPu7RmlXeF-RaSwFlGZn-1" vertex="1">
          <mxGeometry y="156" width="280" height="26" as="geometry" />
        </mxCell>
        <mxCell id="DPu7RmlXeF-RaSwFlGZn-41" value="- hasOrderdEntree : bool" style="text;strokeColor=none;fillColor=none;align=left;verticalAlign=top;spacingLeft=4;spacingRight=4;overflow=hidden;rotatable=0;points=[[0,0.5],[1,0.5]];portConstraint=eastwest;" parent="DPu7RmlXeF-RaSwFlGZn-1" vertex="1">
          <mxGeometry y="182" width="280" height="26" as="geometry" />
        </mxCell>
        <mxCell id="DPu7RmlXeF-RaSwFlGZn-42" value="- hasOrderdMainCourse : bool" style="text;strokeColor=none;fillColor=none;align=left;verticalAlign=top;spacingLeft=4;spacingRight=4;overflow=hidden;rotatable=0;points=[[0,0.5],[1,0.5]];portConstraint=eastwest;" parent="DPu7RmlXeF-RaSwFlGZn-1" vertex="1">
          <mxGeometry y="208" width="280" height="26" as="geometry" />
        </mxCell>
        <mxCell id="DPu7RmlXeF-RaSwFlGZn-43" value="- hasOrderdDessert : bool" style="text;strokeColor=none;fillColor=none;align=left;verticalAlign=top;spacingLeft=4;spacingRight=4;overflow=hidden;rotatable=0;points=[[0,0.5],[1,0.5]];portConstraint=eastwest;" parent="DPu7RmlXeF-RaSwFlGZn-1" vertex="1">
          <mxGeometry y="234" width="280" height="26" as="geometry" />
        </mxCell>
        <mxCell id="DPu7RmlXeF-RaSwFlGZn-3" value="" style="line;strokeWidth=1;fillColor=none;align=left;verticalAlign=middle;spacingTop=-1;spacingLeft=3;spacingRight=3;rotatable=0;labelPosition=right;points=[];portConstraint=eastwest;strokeColor=inherit;" parent="DPu7RmlXeF-RaSwFlGZn-1" vertex="1">
          <mxGeometry y="260" width="280" height="8" as="geometry" />
        </mxCell>
        <mxCell id="DPu7RmlXeF-RaSwFlGZn-4" value="+ makeChoice(Recipe [] recipes): void" style="text;strokeColor=none;fillColor=none;align=left;verticalAlign=top;spacingLeft=4;spacingRight=4;overflow=hidden;rotatable=0;points=[[0,0.5],[1,0.5]];portConstraint=eastwest;" parent="DPu7RmlXeF-RaSwFlGZn-1" vertex="1">
          <mxGeometry y="268" width="280" height="26" as="geometry" />
        </mxCell>
        <mxCell id="DPu7RmlXeF-RaSwFlGZn-5" value="+ toogleHasOrdered(): void" style="text;strokeColor=none;fillColor=none;align=left;verticalAlign=top;spacingLeft=4;spacingRight=4;overflow=hidden;rotatable=0;points=[[0,0.5],[1,0.5]];portConstraint=eastwest;" parent="DPu7RmlXeF-RaSwFlGZn-1" vertex="1">
          <mxGeometry y="294" width="280" height="26" as="geometry" />
        </mxCell>
        <mxCell id="DPu7RmlXeF-RaSwFlGZn-11" value="+ toogleHasOrdered(Recipe [] recipes): Recipe[]" style="text;strokeColor=none;fillColor=none;align=left;verticalAlign=top;spacingLeft=4;spacingRight=4;overflow=hidden;rotatable=0;points=[[0,0.5],[1,0.5]];portConstraint=eastwest;" parent="DPu7RmlXeF-RaSwFlGZn-1" vertex="1">
          <mxGeometry y="320" width="280" height="26" as="geometry" />
        </mxCell>
        <mxCell id="DPu7RmlXeF-RaSwFlGZn-44" value="+ eat(Order[] order)" style="text;strokeColor=none;fillColor=none;align=left;verticalAlign=top;spacingLeft=4;spacingRight=4;overflow=hidden;rotatable=0;points=[[0,0.5],[1,0.5]];portConstraint=eastwest;" parent="DPu7RmlXeF-RaSwFlGZn-1" vertex="1">
          <mxGeometry y="346" width="280" height="26" as="geometry" />
        </mxCell>
        <mxCell id="DPu7RmlXeF-RaSwFlGZn-13" value="Recipe" style="swimlane;fontStyle=1;align=center;verticalAlign=top;childLayout=stackLayout;horizontal=1;startSize=26;horizontalStack=0;resizeParent=1;resizeParentMax=0;resizeLast=0;collapsible=1;marginBottom=0;" parent="1" vertex="1">
          <mxGeometry x="660" y="-409.96" width="234" height="242" as="geometry" />
        </mxCell>
        <mxCell id="DPu7RmlXeF-RaSwFlGZn-14" value="- name: RecipesNames" style="text;strokeColor=none;fillColor=none;align=left;verticalAlign=top;spacingLeft=4;spacingRight=4;overflow=hidden;rotatable=0;points=[[0,0.5],[1,0.5]];portConstraint=eastwest;" parent="DPu7RmlXeF-RaSwFlGZn-13" vertex="1">
          <mxGeometry y="26" width="234" height="26" as="geometry" />
        </mxCell>
        <mxCell id="DPu7RmlXeF-RaSwFlGZn-17" value="- type: RecipesTypes" style="text;strokeColor=none;fillColor=none;align=left;verticalAlign=top;spacingLeft=4;spacingRight=4;overflow=hidden;rotatable=0;points=[[0,0.5],[1,0.5]];portConstraint=eastwest;" parent="DPu7RmlXeF-RaSwFlGZn-13" vertex="1">
          <mxGeometry y="52" width="234" height="26" as="geometry" />
        </mxCell>
        <mxCell id="DPu7RmlXeF-RaSwFlGZn-18" value="- cookingTime : int" style="text;strokeColor=none;fillColor=none;align=left;verticalAlign=top;spacingLeft=4;spacingRight=4;overflow=hidden;rotatable=0;points=[[0,0.5],[1,0.5]];portConstraint=eastwest;" parent="DPu7RmlXeF-RaSwFlGZn-13" vertex="1">
          <mxGeometry y="78" width="234" height="26" as="geometry" />
        </mxCell>
        <mxCell id="DPu7RmlXeF-RaSwFlGZn-19" value="- insMakable : bool" style="text;strokeColor=none;fillColor=none;align=left;verticalAlign=top;spacingLeft=4;spacingRight=4;overflow=hidden;rotatable=0;points=[[0,0.5],[1,0.5]];portConstraint=eastwest;" parent="DPu7RmlXeF-RaSwFlGZn-13" vertex="1">
          <mxGeometry y="104" width="234" height="26" as="geometry" />
        </mxCell>
        <mxCell id="DPu7RmlXeF-RaSwFlGZn-20" value="- ingredientList : ingredient []" style="text;strokeColor=none;fillColor=none;align=left;verticalAlign=top;spacingLeft=4;spacingRight=4;overflow=hidden;rotatable=0;points=[[0,0.5],[1,0.5]];portConstraint=eastwest;" parent="DPu7RmlXeF-RaSwFlGZn-13" vertex="1">
          <mxGeometry y="130" width="234" height="26" as="geometry" />
        </mxCell>
        <mxCell id="tpwpmRQDAEHqeeHJi2B8-40" value="- cookingUstensilsList : UstensilModel []" style="text;strokeColor=none;fillColor=none;align=left;verticalAlign=top;spacingLeft=4;spacingRight=4;overflow=hidden;rotatable=0;points=[[0,0.5],[1,0.5]];portConstraint=eastwest;" parent="DPu7RmlXeF-RaSwFlGZn-13" vertex="1">
          <mxGeometry y="156" width="234" height="26" as="geometry" />
        </mxCell>
        <mxCell id="tpwpmRQDAEHqeeHJi2B8-37" value="- eatingUstensils : UstensilModel []" style="text;strokeColor=none;fillColor=none;align=left;verticalAlign=top;spacingLeft=4;spacingRight=4;overflow=hidden;rotatable=0;points=[[0,0.5],[1,0.5]];portConstraint=eastwest;" parent="DPu7RmlXeF-RaSwFlGZn-13" vertex="1">
          <mxGeometry y="182" width="234" height="26" as="geometry" />
        </mxCell>
        <mxCell id="DPu7RmlXeF-RaSwFlGZn-15" value="" style="line;strokeWidth=1;fillColor=none;align=left;verticalAlign=middle;spacingTop=-1;spacingLeft=3;spacingRight=3;rotatable=0;labelPosition=right;points=[];portConstraint=eastwest;strokeColor=inherit;" parent="DPu7RmlXeF-RaSwFlGZn-13" vertex="1">
          <mxGeometry y="208" width="234" height="8" as="geometry" />
        </mxCell>
        <mxCell id="DPu7RmlXeF-RaSwFlGZn-16" value="+ toogleIsMakable: void" style="text;strokeColor=none;fillColor=none;align=left;verticalAlign=top;spacingLeft=4;spacingRight=4;overflow=hidden;rotatable=0;points=[[0,0.5],[1,0.5]];portConstraint=eastwest;" parent="DPu7RmlXeF-RaSwFlGZn-13" vertex="1">
          <mxGeometry y="216" width="234" height="26" as="geometry" />
        </mxCell>
        <mxCell id="DPu7RmlXeF-RaSwFlGZn-22" value="cardModel" style="swimlane;fontStyle=1;align=center;verticalAlign=top;childLayout=stackLayout;horizontal=1;startSize=26;horizontalStack=0;resizeParent=1;resizeParentMax=0;resizeLast=0;collapsible=1;marginBottom=0;" parent="1" vertex="1">
          <mxGeometry x="461" y="-807" width="180" height="112" as="geometry" />
        </mxCell>
        <mxCell id="DPu7RmlXeF-RaSwFlGZn-23" value="- currentCard : Recipe[]" style="text;strokeColor=none;fillColor=none;align=left;verticalAlign=top;spacingLeft=4;spacingRight=4;overflow=hidden;rotatable=0;points=[[0,0.5],[1,0.5]];portConstraint=eastwest;" parent="DPu7RmlXeF-RaSwFlGZn-22" vertex="1">
          <mxGeometry y="26" width="180" height="26" as="geometry" />
        </mxCell>
        <mxCell id="DPu7RmlXeF-RaSwFlGZn-24" value="" style="line;strokeWidth=1;fillColor=none;align=left;verticalAlign=middle;spacingTop=-1;spacingLeft=3;spacingRight=3;rotatable=0;labelPosition=right;points=[];portConstraint=eastwest;strokeColor=inherit;" parent="DPu7RmlXeF-RaSwFlGZn-22" vertex="1">
          <mxGeometry y="52" width="180" height="8" as="geometry" />
        </mxCell>
        <mxCell id="DPu7RmlXeF-RaSwFlGZn-25" value="+ updateCard() : void" style="text;strokeColor=none;fillColor=none;align=left;verticalAlign=top;spacingLeft=4;spacingRight=4;overflow=hidden;rotatable=0;points=[[0,0.5],[1,0.5]];portConstraint=eastwest;" parent="DPu7RmlXeF-RaSwFlGZn-22" vertex="1">
          <mxGeometry y="60" width="180" height="26" as="geometry" />
        </mxCell>
        <mxCell id="DPu7RmlXeF-RaSwFlGZn-26" value="+ getCurrentCard() : Recipe[]" style="text;strokeColor=none;fillColor=none;align=left;verticalAlign=top;spacingLeft=4;spacingRight=4;overflow=hidden;rotatable=0;points=[[0,0.5],[1,0.5]];portConstraint=eastwest;" parent="DPu7RmlXeF-RaSwFlGZn-22" vertex="1">
          <mxGeometry y="86" width="180" height="26" as="geometry" />
        </mxCell>
        <mxCell id="DPu7RmlXeF-RaSwFlGZn-45" value="RoomClerk" style="swimlane;fontStyle=1;align=center;verticalAlign=top;childLayout=stackLayout;horizontal=1;startSize=26;horizontalStack=0;resizeParent=1;resizeParentMax=0;resizeLast=0;collapsible=1;marginBottom=0;" parent="1" vertex="1">
          <mxGeometry x="1629" y="-605" width="160" height="86" as="geometry" />
        </mxCell>
        <mxCell id="DPu7RmlXeF-RaSwFlGZn-46" value="+ field: type" style="text;strokeColor=none;fillColor=none;align=left;verticalAlign=top;spacingLeft=4;spacingRight=4;overflow=hidden;rotatable=0;points=[[0,0.5],[1,0.5]];portConstraint=eastwest;" parent="DPu7RmlXeF-RaSwFlGZn-45" vertex="1">
          <mxGeometry y="26" width="160" height="26" as="geometry" />
        </mxCell>
        <mxCell id="DPu7RmlXeF-RaSwFlGZn-47" value="" style="line;strokeWidth=1;fillColor=none;align=left;verticalAlign=middle;spacingTop=-1;spacingLeft=3;spacingRight=3;rotatable=0;labelPosition=right;points=[];portConstraint=eastwest;strokeColor=inherit;" parent="DPu7RmlXeF-RaSwFlGZn-45" vertex="1">
          <mxGeometry y="52" width="160" height="8" as="geometry" />
        </mxCell>
        <mxCell id="DPu7RmlXeF-RaSwFlGZn-48" value="+ serveApero()" style="text;strokeColor=none;fillColor=none;align=left;verticalAlign=top;spacingLeft=4;spacingRight=4;overflow=hidden;rotatable=0;points=[[0,0.5],[1,0.5]];portConstraint=eastwest;" parent="DPu7RmlXeF-RaSwFlGZn-45" vertex="1">
          <mxGeometry y="60" width="160" height="26" as="geometry" />
        </mxCell>
        <mxCell id="DPu7RmlXeF-RaSwFlGZn-49" value="Server" style="swimlane;fontStyle=1;align=center;verticalAlign=top;childLayout=stackLayout;horizontal=1;startSize=26;horizontalStack=0;resizeParent=1;resizeParentMax=0;resizeLast=0;collapsible=1;marginBottom=0;" parent="1" vertex="1">
          <mxGeometry x="1217" y="-743" width="375" height="294" as="geometry" />
        </mxCell>
        <mxCell id="DPu7RmlXeF-RaSwFlGZn-57" value="- kico : KitchenCounter" style="text;strokeColor=none;fillColor=none;align=left;verticalAlign=top;spacingLeft=4;spacingRight=4;overflow=hidden;rotatable=0;points=[[0,0.5],[1,0.5]];portConstraint=eastwest;" parent="DPu7RmlXeF-RaSwFlGZn-49" vertex="1">
          <mxGeometry y="26" width="375" height="26" as="geometry" />
        </mxCell>
        <mxCell id="DPu7RmlXeF-RaSwFlGZn-50" value="- Area : int" style="text;strokeColor=none;fillColor=none;align=left;verticalAlign=top;spacingLeft=4;spacingRight=4;overflow=hidden;rotatable=0;points=[[0,0.5],[1,0.5]];portConstraint=eastwest;" parent="DPu7RmlXeF-RaSwFlGZn-49" vertex="1">
          <mxGeometry y="52" width="375" height="26" as="geometry" />
        </mxCell>
        <mxCell id="DPu7RmlXeF-RaSwFlGZn-53" value="- maxReadyOrder : int" style="text;strokeColor=none;fillColor=none;align=left;verticalAlign=top;spacingLeft=4;spacingRight=4;overflow=hidden;rotatable=0;points=[[0,0.5],[1,0.5]];portConstraint=eastwest;" parent="DPu7RmlXeF-RaSwFlGZn-49" vertex="1">
          <mxGeometry y="78" width="375" height="26" as="geometry" />
        </mxCell>
        <mxCell id="DPu7RmlXeF-RaSwFlGZn-59" value="- dirtyDishescollected : UsetensilModel[]" style="text;strokeColor=none;fillColor=none;align=left;verticalAlign=top;spacingLeft=4;spacingRight=4;overflow=hidden;rotatable=0;points=[[0,0.5],[1,0.5]];portConstraint=eastwest;" parent="DPu7RmlXeF-RaSwFlGZn-49" vertex="1">
          <mxGeometry y="104" width="375" height="26" as="geometry" />
        </mxCell>
        <mxCell id="DPu7RmlXeF-RaSwFlGZn-60" value="- didisto : DirtyDishesStorage" style="text;strokeColor=none;fillColor=none;align=left;verticalAlign=top;spacingLeft=4;spacingRight=4;overflow=hidden;rotatable=0;points=[[0,0.5],[1,0.5]];portConstraint=eastwest;" parent="DPu7RmlXeF-RaSwFlGZn-49" vertex="1">
          <mxGeometry y="130" width="375" height="26" as="geometry" />
        </mxCell>
        <mxCell id="DPu7RmlXeF-RaSwFlGZn-51" value="" style="line;strokeWidth=1;fillColor=none;align=left;verticalAlign=middle;spacingTop=-1;spacingLeft=3;spacingRight=3;rotatable=0;labelPosition=right;points=[];portConstraint=eastwest;strokeColor=inherit;" parent="DPu7RmlXeF-RaSwFlGZn-49" vertex="1">
          <mxGeometry y="156" width="375" height="8" as="geometry" />
        </mxCell>
        <mxCell id="DPu7RmlXeF-RaSwFlGZn-52" value="+ getReadyOrder(): void" style="text;strokeColor=none;fillColor=none;align=left;verticalAlign=top;spacingLeft=4;spacingRight=4;overflow=hidden;rotatable=0;points=[[0,0.5],[1,0.5]];portConstraint=eastwest;" parent="DPu7RmlXeF-RaSwFlGZn-49" vertex="1">
          <mxGeometry y="164" width="375" height="26" as="geometry" />
        </mxCell>
        <mxCell id="DPu7RmlXeF-RaSwFlGZn-55" value="+ clearTable(): void" style="text;strokeColor=none;fillColor=none;align=left;verticalAlign=top;spacingLeft=4;spacingRight=4;overflow=hidden;rotatable=0;points=[[0,0.5],[1,0.5]];portConstraint=eastwest;" parent="DPu7RmlXeF-RaSwFlGZn-49" vertex="1">
          <mxGeometry y="190" width="375" height="26" as="geometry" />
        </mxCell>
        <mxCell id="DPu7RmlXeF-RaSwFlGZn-56" value="+ serverclient (UstensilsModel uts [ ], Table table, Order order" style="text;strokeColor=none;fillColor=none;align=left;verticalAlign=top;spacingLeft=4;spacingRight=4;overflow=hidden;rotatable=0;points=[[0,0.5],[1,0.5]];portConstraint=eastwest;" parent="DPu7RmlXeF-RaSwFlGZn-49" vertex="1">
          <mxGeometry y="216" width="375" height="26" as="geometry" />
        </mxCell>
        <mxCell id="DPu7RmlXeF-RaSwFlGZn-62" value="+ dropDirtyDishes (): void " style="text;strokeColor=none;fillColor=none;align=left;verticalAlign=top;spacingLeft=4;spacingRight=4;overflow=hidden;rotatable=0;points=[[0,0.5],[1,0.5]];portConstraint=eastwest;" parent="DPu7RmlXeF-RaSwFlGZn-49" vertex="1">
          <mxGeometry y="242" width="375" height="26" as="geometry" />
        </mxCell>
        <mxCell id="DPu7RmlXeF-RaSwFlGZn-63" value="+ help (): void" style="text;strokeColor=none;fillColor=none;align=left;verticalAlign=top;spacingLeft=4;spacingRight=4;overflow=hidden;rotatable=0;points=[[0,0.5],[1,0.5]];portConstraint=eastwest;" parent="DPu7RmlXeF-RaSwFlGZn-49" vertex="1">
          <mxGeometry y="268" width="375" height="26" as="geometry" />
        </mxCell>
        <mxCell id="DPu7RmlXeF-RaSwFlGZn-65" value="Order" style="swimlane;fontStyle=1;align=center;verticalAlign=top;childLayout=stackLayout;horizontal=1;startSize=26;horizontalStack=0;resizeParent=1;resizeParentMax=0;resizeLast=0;collapsible=1;marginBottom=0;" parent="1" vertex="1">
          <mxGeometry x="305" y="-440" width="200" height="164" as="geometry" />
        </mxCell>
        <mxCell id="DPu7RmlXeF-RaSwFlGZn-66" value="- table : Table" style="text;strokeColor=none;fillColor=none;align=left;verticalAlign=top;spacingLeft=4;spacingRight=4;overflow=hidden;rotatable=0;points=[[0,0.5],[1,0.5]];portConstraint=eastwest;" parent="DPu7RmlXeF-RaSwFlGZn-65" vertex="1">
          <mxGeometry y="26" width="200" height="26" as="geometry" />
        </mxCell>
        <mxCell id="DPu7RmlXeF-RaSwFlGZn-69" value="- OrderRecipes: Recipe [ ]" style="text;strokeColor=none;fillColor=none;align=left;verticalAlign=top;spacingLeft=4;spacingRight=4;overflow=hidden;rotatable=0;points=[[0,0.5],[1,0.5]];portConstraint=eastwest;" parent="DPu7RmlXeF-RaSwFlGZn-65" vertex="1">
          <mxGeometry y="52" width="200" height="26" as="geometry" />
        </mxCell>
        <mxCell id="DPu7RmlXeF-RaSwFlGZn-70" value="- id: int" style="text;strokeColor=none;fillColor=none;align=left;verticalAlign=top;spacingLeft=4;spacingRight=4;overflow=hidden;rotatable=0;points=[[0,0.5],[1,0.5]];portConstraint=eastwest;" parent="DPu7RmlXeF-RaSwFlGZn-65" vertex="1">
          <mxGeometry y="78" width="200" height="26" as="geometry" />
        </mxCell>
        <mxCell id="DPu7RmlXeF-RaSwFlGZn-73" value="- client : client " style="text;strokeColor=none;fillColor=none;align=left;verticalAlign=top;spacingLeft=4;spacingRight=4;overflow=hidden;rotatable=0;points=[[0,0.5],[1,0.5]];portConstraint=eastwest;" parent="DPu7RmlXeF-RaSwFlGZn-65" vertex="1">
          <mxGeometry y="104" width="200" height="26" as="geometry" />
        </mxCell>
        <mxCell id="DPu7RmlXeF-RaSwFlGZn-67" value="" style="line;strokeWidth=1;fillColor=none;align=left;verticalAlign=middle;spacingTop=-1;spacingLeft=3;spacingRight=3;rotatable=0;labelPosition=right;points=[];portConstraint=eastwest;strokeColor=inherit;" parent="DPu7RmlXeF-RaSwFlGZn-65" vertex="1">
          <mxGeometry y="130" width="200" height="8" as="geometry" />
        </mxCell>
        <mxCell id="DPu7RmlXeF-RaSwFlGZn-68" value="+ CreateCultleries (): void" style="text;strokeColor=none;fillColor=none;align=left;verticalAlign=top;spacingLeft=4;spacingRight=4;overflow=hidden;rotatable=0;points=[[0,0.5],[1,0.5]];portConstraint=eastwest;" parent="DPu7RmlXeF-RaSwFlGZn-65" vertex="1">
          <mxGeometry y="138" width="200" height="26" as="geometry" />
        </mxCell>
        <mxCell id="DPu7RmlXeF-RaSwFlGZn-74" value="Headwaiter " style="swimlane;fontStyle=1;align=center;verticalAlign=top;childLayout=stackLayout;horizontal=1;startSize=26;horizontalStack=0;resizeParent=1;resizeParentMax=0;resizeLast=0;collapsible=1;marginBottom=0;" parent="1" vertex="1">
          <mxGeometry x="-305" y="-618" width="260" height="112" as="geometry" />
        </mxCell>
        <mxCell id="DPu7RmlXeF-RaSwFlGZn-75" value="- OrderQueue:  Queue &lt;order&gt;" style="text;strokeColor=none;fillColor=none;align=left;verticalAlign=top;spacingLeft=4;spacingRight=4;overflow=hidden;rotatable=0;points=[[0,0.5],[1,0.5]];portConstraint=eastwest;" parent="DPu7RmlXeF-RaSwFlGZn-74" vertex="1">
          <mxGeometry y="26" width="260" height="26" as="geometry" />
        </mxCell>
        <mxCell id="DPu7RmlXeF-RaSwFlGZn-76" value="" style="line;strokeWidth=1;fillColor=none;align=left;verticalAlign=middle;spacingTop=-1;spacingLeft=3;spacingRight=3;rotatable=0;labelPosition=right;points=[];portConstraint=eastwest;strokeColor=inherit;" parent="DPu7RmlXeF-RaSwFlGZn-74" vertex="1">
          <mxGeometry y="52" width="260" height="8" as="geometry" />
        </mxCell>
        <mxCell id="DPu7RmlXeF-RaSwFlGZn-77" value="+ leadclients ( Table table, Clients [ ] clients)" style="text;strokeColor=none;fillColor=none;align=left;verticalAlign=top;spacingLeft=4;spacingRight=4;overflow=hidden;rotatable=0;points=[[0,0.5],[1,0.5]];portConstraint=eastwest;" parent="DPu7RmlXeF-RaSwFlGZn-74" vertex="1">
          <mxGeometry y="60" width="260" height="26" as="geometry" />
        </mxCell>
        <mxCell id="DPu7RmlXeF-RaSwFlGZn-78" value="+ PassOrdersTochief ( ): void" style="text;strokeColor=none;fillColor=none;align=left;verticalAlign=top;spacingLeft=4;spacingRight=4;overflow=hidden;rotatable=0;points=[[0,0.5],[1,0.5]];portConstraint=eastwest;" parent="DPu7RmlXeF-RaSwFlGZn-74" vertex="1">
          <mxGeometry y="86" width="260" height="26" as="geometry" />
        </mxCell>
        <mxCell id="DPu7RmlXeF-RaSwFlGZn-79" value="Chief" style="swimlane;fontStyle=1;align=center;verticalAlign=top;childLayout=stackLayout;horizontal=1;startSize=26;horizontalStack=0;resizeParent=1;resizeParentMax=0;resizeLast=0;collapsible=1;marginBottom=0;" parent="1" vertex="1">
          <mxGeometry x="358" y="-1226" width="200" height="246" as="geometry" />
        </mxCell>
        <mxCell id="tyf2pBnSicJyKzuXMppc-1" value="- currentCard: Card" style="text;strokeColor=none;fillColor=none;align=left;verticalAlign=top;spacingLeft=4;spacingRight=4;overflow=hidden;rotatable=0;points=[[0,0.5],[1,0.5]];portConstraint=eastwest;" parent="DPu7RmlXeF-RaSwFlGZn-79" vertex="1">
          <mxGeometry y="26" width="200" height="26" as="geometry" />
        </mxCell>
        <mxCell id="DPu7RmlXeF-RaSwFlGZn-83" value="- OrderList : Order [ ]" style="text;strokeColor=none;fillColor=none;align=left;verticalAlign=top;spacingLeft=4;spacingRight=4;overflow=hidden;rotatable=0;points=[[0,0.5],[1,0.5]];portConstraint=eastwest;" parent="DPu7RmlXeF-RaSwFlGZn-79" vertex="1">
          <mxGeometry y="52" width="200" height="26" as="geometry" />
        </mxCell>
        <mxCell id="DPu7RmlXeF-RaSwFlGZn-84" value="- OrganizedOrderList: Order [ ]" style="text;strokeColor=none;fillColor=none;align=left;verticalAlign=top;spacingLeft=4;spacingRight=4;overflow=hidden;rotatable=0;points=[[0,0.5],[1,0.5]];portConstraint=eastwest;" parent="DPu7RmlXeF-RaSwFlGZn-79" vertex="1">
          <mxGeometry y="78" width="200" height="30" as="geometry" />
        </mxCell>
        <mxCell id="DPu7RmlXeF-RaSwFlGZn-85" value="- InvalidOrderList: Order [ ]" style="text;strokeColor=none;fillColor=none;align=left;verticalAlign=top;spacingLeft=4;spacingRight=4;overflow=hidden;rotatable=0;points=[[0,0.5],[1,0.5]];portConstraint=eastwest;" parent="DPu7RmlXeF-RaSwFlGZn-79" vertex="1">
          <mxGeometry y="108" width="200" height="26" as="geometry" />
        </mxCell>
        <mxCell id="DPu7RmlXeF-RaSwFlGZn-81" value="" style="line;strokeWidth=1;fillColor=none;align=left;verticalAlign=middle;spacingTop=-1;spacingLeft=3;spacingRight=3;rotatable=0;labelPosition=right;points=[];portConstraint=eastwest;strokeColor=inherit;" parent="DPu7RmlXeF-RaSwFlGZn-79" vertex="1">
          <mxGeometry y="134" width="200" height="8" as="geometry" />
        </mxCell>
        <mxCell id="DPu7RmlXeF-RaSwFlGZn-82" value="+ Set CurrentCard () : void " style="text;strokeColor=none;fillColor=none;align=left;verticalAlign=top;spacingLeft=4;spacingRight=4;overflow=hidden;rotatable=0;points=[[0,0.5],[1,0.5]];portConstraint=eastwest;" parent="DPu7RmlXeF-RaSwFlGZn-79" vertex="1">
          <mxGeometry y="142" width="200" height="26" as="geometry" />
        </mxCell>
        <mxCell id="DPu7RmlXeF-RaSwFlGZn-86" value="+ OrganizeOrders (): Order [ ]" style="text;strokeColor=none;fillColor=none;align=left;verticalAlign=top;spacingLeft=4;spacingRight=4;overflow=hidden;rotatable=0;points=[[0,0.5],[1,0.5]];portConstraint=eastwest;" parent="DPu7RmlXeF-RaSwFlGZn-79" vertex="1">
          <mxGeometry y="168" width="200" height="26" as="geometry" />
        </mxCell>
        <mxCell id="DPu7RmlXeF-RaSwFlGZn-87" value="+ checkOrderList : Order [ ]" style="text;strokeColor=none;fillColor=none;align=left;verticalAlign=top;spacingLeft=4;spacingRight=4;overflow=hidden;rotatable=0;points=[[0,0.5],[1,0.5]];portConstraint=eastwest;" parent="DPu7RmlXeF-RaSwFlGZn-79" vertex="1">
          <mxGeometry y="194" width="200" height="26" as="geometry" />
        </mxCell>
        <mxCell id="DPu7RmlXeF-RaSwFlGZn-88" value="+ DistributeTasks ( ): void" style="text;strokeColor=none;fillColor=none;align=left;verticalAlign=top;spacingLeft=4;spacingRight=4;overflow=hidden;rotatable=0;points=[[0,0.5],[1,0.5]];portConstraint=eastwest;" parent="DPu7RmlXeF-RaSwFlGZn-79" vertex="1">
          <mxGeometry y="220" width="200" height="26" as="geometry" />
        </mxCell>
        <mxCell id="tyf2pBnSicJyKzuXMppc-6" value="DinningRoom" style="swimlane;fontStyle=1;align=center;verticalAlign=top;childLayout=stackLayout;horizontal=1;startSize=26;horizontalStack=0;resizeParent=1;resizeParentMax=0;resizeLast=0;collapsible=1;marginBottom=0;whiteSpace=wrap;html=1;" parent="1" vertex="1">
          <mxGeometry x="1547" y="-356" width="260" height="348" as="geometry" />
        </mxCell>
        <mxCell id="tyf2pBnSicJyKzuXMppc-7" value="- tableList: Table [ ]" style="text;strokeColor=none;fillColor=none;align=left;verticalAlign=top;spacingLeft=4;spacingRight=4;overflow=hidden;rotatable=0;points=[[0,0.5],[1,0.5]];portConstraint=eastwest;whiteSpace=wrap;html=1;" parent="tyf2pBnSicJyKzuXMppc-6" vertex="1">
          <mxGeometry y="26" width="260" height="26" as="geometry" />
        </mxCell>
        <mxCell id="tyf2pBnSicJyKzuXMppc-10" value="- breadCartAvailaible: int&amp;nbsp;" style="text;strokeColor=none;fillColor=none;align=left;verticalAlign=top;spacingLeft=4;spacingRight=4;overflow=hidden;rotatable=0;points=[[0,0.5],[1,0.5]];portConstraint=eastwest;whiteSpace=wrap;html=1;" parent="tyf2pBnSicJyKzuXMppc-6" vertex="1">
          <mxGeometry y="52" width="260" height="26" as="geometry" />
        </mxCell>
        <mxCell id="tyf2pBnSicJyKzuXMppc-11" value="- cardDistribued: ind" style="text;strokeColor=none;fillColor=none;align=left;verticalAlign=top;spacingLeft=4;spacingRight=4;overflow=hidden;rotatable=0;points=[[0,0.5],[1,0.5]];portConstraint=eastwest;whiteSpace=wrap;html=1;" parent="tyf2pBnSicJyKzuXMppc-6" vertex="1">
          <mxGeometry y="78" width="260" height="26" as="geometry" />
        </mxCell>
        <mxCell id="tyf2pBnSicJyKzuXMppc-12" value="- currentClientNumber: int" style="text;strokeColor=none;fillColor=none;align=left;verticalAlign=top;spacingLeft=4;spacingRight=4;overflow=hidden;rotatable=0;points=[[0,0.5],[1,0.5]];portConstraint=eastwest;whiteSpace=wrap;html=1;" parent="tyf2pBnSicJyKzuXMppc-6" vertex="1">
          <mxGeometry y="104" width="260" height="26" as="geometry" />
        </mxCell>
        <mxCell id="tyf2pBnSicJyKzuXMppc-13" value="- totalClientOfTheDay: int" style="text;strokeColor=none;fillColor=none;align=left;verticalAlign=top;spacingLeft=4;spacingRight=4;overflow=hidden;rotatable=0;points=[[0,0.5],[1,0.5]];portConstraint=eastwest;whiteSpace=wrap;html=1;" parent="tyf2pBnSicJyKzuXMppc-6" vertex="1">
          <mxGeometry y="130" width="260" height="26" as="geometry" />
        </mxCell>
        <mxCell id="tyf2pBnSicJyKzuXMppc-14" value="- isFirstSquareBusy: bool" style="text;strokeColor=none;fillColor=none;align=left;verticalAlign=top;spacingLeft=4;spacingRight=4;overflow=hidden;rotatable=0;points=[[0,0.5],[1,0.5]];portConstraint=eastwest;whiteSpace=wrap;html=1;" parent="tyf2pBnSicJyKzuXMppc-6" vertex="1">
          <mxGeometry y="156" width="260" height="26" as="geometry" />
        </mxCell>
        <mxCell id="tyf2pBnSicJyKzuXMppc-15" value="- isSecondSquareBusy: bool" style="text;strokeColor=none;fillColor=none;align=left;verticalAlign=top;spacingLeft=4;spacingRight=4;overflow=hidden;rotatable=0;points=[[0,0.5],[1,0.5]];portConstraint=eastwest;whiteSpace=wrap;html=1;" parent="tyf2pBnSicJyKzuXMppc-6" vertex="1">
          <mxGeometry y="182" width="260" height="28" as="geometry" />
        </mxCell>
        <mxCell id="tyf2pBnSicJyKzuXMppc-16" value="- firstSquareBusyServerNumber: int" style="text;strokeColor=none;fillColor=none;align=left;verticalAlign=top;spacingLeft=4;spacingRight=4;overflow=hidden;rotatable=0;points=[[0,0.5],[1,0.5]];portConstraint=eastwest;whiteSpace=wrap;html=1;" parent="tyf2pBnSicJyKzuXMppc-6" vertex="1">
          <mxGeometry y="210" width="260" height="26" as="geometry" />
        </mxCell>
        <mxCell id="tyf2pBnSicJyKzuXMppc-18" value="- secondSquareBusyServerNumber: int" style="text;strokeColor=none;fillColor=none;align=left;verticalAlign=top;spacingLeft=4;spacingRight=4;overflow=hidden;rotatable=0;points=[[0,0.5],[1,0.5]];portConstraint=eastwest;whiteSpace=wrap;html=1;" parent="tyf2pBnSicJyKzuXMppc-6" vertex="1">
          <mxGeometry y="236" width="260" height="26" as="geometry" />
        </mxCell>
        <mxCell id="tyf2pBnSicJyKzuXMppc-19" value="- firstSquareRequestQueue: queue &amp;lt; &amp;gt;" style="text;strokeColor=none;fillColor=none;align=left;verticalAlign=top;spacingLeft=4;spacingRight=4;overflow=hidden;rotatable=0;points=[[0,0.5],[1,0.5]];portConstraint=eastwest;whiteSpace=wrap;html=1;" parent="tyf2pBnSicJyKzuXMppc-6" vertex="1">
          <mxGeometry y="262" width="260" height="26" as="geometry" />
        </mxCell>
        <mxCell id="tyf2pBnSicJyKzuXMppc-17" value="- secondSquareRequestQueue: queue &amp;lt; &amp;gt;" style="text;strokeColor=none;fillColor=none;align=left;verticalAlign=top;spacingLeft=4;spacingRight=4;overflow=hidden;rotatable=0;points=[[0,0.5],[1,0.5]];portConstraint=eastwest;whiteSpace=wrap;html=1;" parent="tyf2pBnSicJyKzuXMppc-6" vertex="1">
          <mxGeometry y="288" width="260" height="26" as="geometry" />
        </mxCell>
        <mxCell id="tyf2pBnSicJyKzuXMppc-8" value="" style="line;strokeWidth=1;fillColor=none;align=left;verticalAlign=middle;spacingTop=-1;spacingLeft=3;spacingRight=3;rotatable=0;labelPosition=right;points=[];portConstraint=eastwest;strokeColor=inherit;" parent="tyf2pBnSicJyKzuXMppc-6" vertex="1">
          <mxGeometry y="314" width="260" height="8" as="geometry" />
        </mxCell>
        <mxCell id="tyf2pBnSicJyKzuXMppc-9" value="+getEmptyTableList ( ): Table [ ]" style="text;strokeColor=none;fillColor=none;align=left;verticalAlign=top;spacingLeft=4;spacingRight=4;overflow=hidden;rotatable=0;points=[[0,0.5],[1,0.5]];portConstraint=eastwest;whiteSpace=wrap;html=1;" parent="tyf2pBnSicJyKzuXMppc-6" vertex="1">
          <mxGeometry y="322" width="260" height="26" as="geometry" />
        </mxCell>
        <mxCell id="tyf2pBnSicJyKzuXMppc-20" value="KitchenCounter" style="swimlane;fontStyle=1;align=center;verticalAlign=top;childLayout=stackLayout;horizontal=1;startSize=26;horizontalStack=0;resizeParent=1;resizeParentMax=0;resizeLast=0;collapsible=1;marginBottom=0;whiteSpace=wrap;html=1;" parent="1" vertex="1">
          <mxGeometry x="-672" y="-545" width="250" height="164" as="geometry" />
        </mxCell>
        <mxCell id="tyf2pBnSicJyKzuXMppc-21" value="- ReadyOrderList: Order [ ]" style="text;strokeColor=none;fillColor=none;align=left;verticalAlign=top;spacingLeft=4;spacingRight=4;overflow=hidden;rotatable=0;points=[[0,0.5],[1,0.5]];portConstraint=eastwest;whiteSpace=wrap;html=1;" parent="tyf2pBnSicJyKzuXMppc-20" vertex="1">
          <mxGeometry y="26" width="250" height="26" as="geometry" />
        </mxCell>
        <mxCell id="tyf2pBnSicJyKzuXMppc-24" value="- ReadyOrderNumber: int" style="text;strokeColor=none;fillColor=none;align=left;verticalAlign=top;spacingLeft=4;spacingRight=4;overflow=hidden;rotatable=0;points=[[0,0.5],[1,0.5]];portConstraint=eastwest;whiteSpace=wrap;html=1;" parent="tyf2pBnSicJyKzuXMppc-20" vertex="1">
          <mxGeometry y="52" width="250" height="26" as="geometry" />
        </mxCell>
        <mxCell id="tyf2pBnSicJyKzuXMppc-25" value="- MaxReadyOrder: int&amp;nbsp;" style="text;strokeColor=none;fillColor=none;align=left;verticalAlign=top;spacingLeft=4;spacingRight=4;overflow=hidden;rotatable=0;points=[[0,0.5],[1,0.5]];portConstraint=eastwest;whiteSpace=wrap;html=1;" parent="tyf2pBnSicJyKzuXMppc-20" vertex="1">
          <mxGeometry y="78" width="250" height="26" as="geometry" />
        </mxCell>
        <mxCell id="tyf2pBnSicJyKzuXMppc-22" value="" style="line;strokeWidth=1;fillColor=none;align=left;verticalAlign=middle;spacingTop=-1;spacingLeft=3;spacingRight=3;rotatable=0;labelPosition=right;points=[];portConstraint=eastwest;strokeColor=inherit;" parent="tyf2pBnSicJyKzuXMppc-20" vertex="1">
          <mxGeometry y="104" width="250" height="8" as="geometry" />
        </mxCell>
        <mxCell id="tyf2pBnSicJyKzuXMppc-23" value="+ AppendReadyOrder (Oder[ ] orders) : void" style="text;strokeColor=none;fillColor=none;align=left;verticalAlign=top;spacingLeft=4;spacingRight=4;overflow=hidden;rotatable=0;points=[[0,0.5],[1,0.5]];portConstraint=eastwest;whiteSpace=wrap;html=1;" parent="tyf2pBnSicJyKzuXMppc-20" vertex="1">
          <mxGeometry y="112" width="250" height="26" as="geometry" />
        </mxCell>
        <mxCell id="tyf2pBnSicJyKzuXMppc-26" value="+ RemoveReqdyOrder ( ): void" style="text;strokeColor=none;fillColor=none;align=left;verticalAlign=top;spacingLeft=4;spacingRight=4;overflow=hidden;rotatable=0;points=[[0,0.5],[1,0.5]];portConstraint=eastwest;whiteSpace=wrap;html=1;" parent="tyf2pBnSicJyKzuXMppc-20" vertex="1">
          <mxGeometry y="138" width="250" height="26" as="geometry" />
        </mxCell>
        <mxCell id="tyf2pBnSicJyKzuXMppc-27" value="Cook" style="swimlane;fontStyle=1;align=center;verticalAlign=top;childLayout=stackLayout;horizontal=1;startSize=26;horizontalStack=0;resizeParent=1;resizeParentMax=0;resizeLast=0;collapsible=1;marginBottom=0;whiteSpace=wrap;html=1;" parent="1" vertex="1">
          <mxGeometry x="-12" y="-772" width="240" height="86" as="geometry" />
        </mxCell>
        <mxCell id="tyf2pBnSicJyKzuXMppc-28" value="- RcipeQueue: Queue &amp;lt;Order&amp;gt;" style="text;strokeColor=none;fillColor=none;align=left;verticalAlign=top;spacingLeft=4;spacingRight=4;overflow=hidden;rotatable=0;points=[[0,0.5],[1,0.5]];portConstraint=eastwest;whiteSpace=wrap;html=1;" parent="tyf2pBnSicJyKzuXMppc-27" vertex="1">
          <mxGeometry y="26" width="240" height="26" as="geometry" />
        </mxCell>
        <mxCell id="tyf2pBnSicJyKzuXMppc-29" value="" style="line;strokeWidth=1;fillColor=none;align=left;verticalAlign=middle;spacingTop=-1;spacingLeft=3;spacingRight=3;rotatable=0;labelPosition=right;points=[];portConstraint=eastwest;strokeColor=inherit;" parent="tyf2pBnSicJyKzuXMppc-27" vertex="1">
          <mxGeometry y="52" width="240" height="8" as="geometry" />
        </mxCell>
        <mxCell id="tyf2pBnSicJyKzuXMppc-30" value="+ cookRecipe ( Order [ ] orders): void" style="text;strokeColor=none;fillColor=none;align=left;verticalAlign=top;spacingLeft=4;spacingRight=4;overflow=hidden;rotatable=0;points=[[0,0.5],[1,0.5]];portConstraint=eastwest;whiteSpace=wrap;html=1;" parent="tyf2pBnSicJyKzuXMppc-27" vertex="1">
          <mxGeometry y="60" width="240" height="26" as="geometry" />
        </mxCell>
        <mxCell id="tyf2pBnSicJyKzuXMppc-31" value="KitchenAssistant" style="swimlane;fontStyle=1;align=center;verticalAlign=top;childLayout=stackLayout;horizontal=1;startSize=26;horizontalStack=0;resizeParent=1;resizeParentMax=0;resizeLast=0;collapsible=1;marginBottom=0;whiteSpace=wrap;html=1;" parent="1" vertex="1">
          <mxGeometry x="-403" y="-831" width="229" height="112" as="geometry" />
        </mxCell>
        <mxCell id="tpwpmRQDAEHqeeHJi2B8-30" value="+ kitchenCounter : KitchenCounter" style="text;strokeColor=none;fillColor=none;align=left;verticalAlign=top;spacingLeft=4;spacingRight=4;overflow=hidden;rotatable=0;points=[[0,0.5],[1,0.5]];portConstraint=eastwest;whiteSpace=wrap;html=1;" parent="tyf2pBnSicJyKzuXMppc-31" vertex="1">
          <mxGeometry y="26" width="229" height="26" as="geometry" />
        </mxCell>
        <mxCell id="tyf2pBnSicJyKzuXMppc-33" value="" style="line;strokeWidth=1;fillColor=none;align=left;verticalAlign=middle;spacingTop=-1;spacingLeft=3;spacingRight=3;rotatable=0;labelPosition=right;points=[];portConstraint=eastwest;strokeColor=inherit;" parent="tyf2pBnSicJyKzuXMppc-31" vertex="1">
          <mxGeometry y="52" width="229" height="8" as="geometry" />
        </mxCell>
        <mxCell id="tyf2pBnSicJyKzuXMppc-34" value="+ sendTocounter ( ): void" style="text;strokeColor=none;fillColor=none;align=left;verticalAlign=top;spacingLeft=4;spacingRight=4;overflow=hidden;rotatable=0;points=[[0,0.5],[1,0.5]];portConstraint=eastwest;whiteSpace=wrap;html=1;" parent="tyf2pBnSicJyKzuXMppc-31" vertex="1">
          <mxGeometry y="60" width="229" height="26" as="geometry" />
        </mxCell>
        <mxCell id="tyf2pBnSicJyKzuXMppc-35" value="+ prepare Ingredient ( ): void" style="text;strokeColor=none;fillColor=none;align=left;verticalAlign=top;spacingLeft=4;spacingRight=4;overflow=hidden;rotatable=0;points=[[0,0.5],[1,0.5]];portConstraint=eastwest;whiteSpace=wrap;html=1;" parent="tyf2pBnSicJyKzuXMppc-31" vertex="1">
          <mxGeometry y="86" width="229" height="26" as="geometry" />
        </mxCell>
        <mxCell id="AqGMEElF0sX-npHa-1An-1" value="" style="endArrow=block;endSize=16;endFill=0;html=1;rounded=0;entryX=0.413;entryY=1.03;entryDx=0;entryDy=0;entryPerimeter=0;exitX=0.485;exitY=-0.001;exitDx=0;exitDy=0;exitPerimeter=0;" parent="1" source="RDhP8_hSbDgLvopPwKMN-24" target="RDhP8_hSbDgLvopPwKMN-16" edge="1">
          <mxGeometry x="-0.1466" y="5" width="160" relative="1" as="geometry">
            <mxPoint x="368" y="200" as="sourcePoint" />
            <mxPoint x="460" y="25" as="targetPoint" />
            <mxPoint as="offset" />
          </mxGeometry>
        </mxCell>
        <mxCell id="AqGMEElF0sX-npHa-1An-2" value="" style="endArrow=open;endSize=12;dashed=1;html=1;rounded=0;entryX=0.45;entryY=1.022;entryDx=0;entryDy=0;entryPerimeter=0;exitX=0.476;exitY=0.002;exitDx=0;exitDy=0;exitPerimeter=0;" parent="1" source="RDhP8_hSbDgLvopPwKMN-7" target="RDhP8_hSbDgLvopPwKMN-6" edge="1">
          <mxGeometry width="160" relative="1" as="geometry">
            <mxPoint x="63" y="-130" as="sourcePoint" />
            <mxPoint x="390" y="-190" as="targetPoint" />
          </mxGeometry>
        </mxCell>
        <mxCell id="AqGMEElF0sX-npHa-1An-9" value="Human" style="swimlane;fontStyle=1;align=center;verticalAlign=top;childLayout=stackLayout;horizontal=1;startSize=26;horizontalStack=0;resizeParent=1;resizeParentMax=0;resizeLast=0;collapsible=1;marginBottom=0;" parent="1" vertex="1">
          <mxGeometry x="890" y="-861" width="160" height="112" as="geometry" />
        </mxCell>
        <mxCell id="AqGMEElF0sX-npHa-1An-10" value="+ abs: double" style="text;strokeColor=none;fillColor=none;align=left;verticalAlign=top;spacingLeft=4;spacingRight=4;overflow=hidden;rotatable=0;points=[[0,0.5],[1,0.5]];portConstraint=eastwest;" parent="AqGMEElF0sX-npHa-1An-9" vertex="1">
          <mxGeometry y="26" width="160" height="26" as="geometry" />
        </mxCell>
        <mxCell id="AqGMEElF0sX-npHa-1An-14" value="+ ord: double" style="text;strokeColor=none;fillColor=none;align=left;verticalAlign=top;spacingLeft=4;spacingRight=4;overflow=hidden;rotatable=0;points=[[0,0.5],[1,0.5]];portConstraint=eastwest;" parent="AqGMEElF0sX-npHa-1An-9" vertex="1">
          <mxGeometry y="52" width="160" height="26" as="geometry" />
        </mxCell>
        <mxCell id="AqGMEElF0sX-npHa-1An-11" value="" style="line;strokeWidth=1;fillColor=none;align=left;verticalAlign=middle;spacingTop=-1;spacingLeft=3;spacingRight=3;rotatable=0;labelPosition=right;points=[];portConstraint=eastwest;strokeColor=inherit;" parent="AqGMEElF0sX-npHa-1An-9" vertex="1">
          <mxGeometry y="78" width="160" height="8" as="geometry" />
        </mxCell>
        <mxCell id="AqGMEElF0sX-npHa-1An-12" value="+ move(coord[]): void" style="text;strokeColor=none;fillColor=none;align=left;verticalAlign=top;spacingLeft=4;spacingRight=4;overflow=hidden;rotatable=0;points=[[0,0.5],[1,0.5]];portConstraint=eastwest;" parent="AqGMEElF0sX-npHa-1An-9" vertex="1">
          <mxGeometry y="86" width="160" height="26" as="geometry" />
        </mxCell>
        <mxCell id="AqGMEElF0sX-npHa-1An-15" value="" style="endArrow=block;endSize=16;endFill=0;html=1;rounded=0;edgeStyle=orthogonalEdgeStyle;curved=1;entryX=0.44;entryY=1.006;entryDx=0;entryDy=0;entryPerimeter=0;" parent="1" source="DPu7RmlXeF-RaSwFlGZn-1" target="AqGMEElF0sX-npHa-1An-12" edge="1">
          <mxGeometry x="0.1493" y="-18" width="160" relative="1" as="geometry">
            <mxPoint x="1000" y="-490" as="sourcePoint" />
            <mxPoint x="1160" y="-490" as="targetPoint" />
            <mxPoint as="offset" />
          </mxGeometry>
        </mxCell>
        <mxCell id="AqGMEElF0sX-npHa-1An-16" value="" style="endArrow=block;endSize=16;endFill=0;html=1;rounded=0;entryX=1;entryY=0.5;entryDx=0;entryDy=0;edgeStyle=orthogonalEdgeStyle;curved=1;" parent="1" source="DPu7RmlXeF-RaSwFlGZn-49" target="AqGMEElF0sX-npHa-1An-14" edge="1">
          <mxGeometry x="0.1493" y="-18" width="160" relative="1" as="geometry">
            <mxPoint x="1160" y="-308" as="sourcePoint" />
            <mxPoint x="980" y="-585.0000000000002" as="targetPoint" />
            <mxPoint as="offset" />
          </mxGeometry>
        </mxCell>
        <mxCell id="AqGMEElF0sX-npHa-1An-18" value="" style="endArrow=block;endSize=16;endFill=0;html=1;rounded=0;curved=1;entryX=0.996;entryY=0.552;entryDx=0;entryDy=0;entryPerimeter=0;exitX=0;exitY=0.25;exitDx=0;exitDy=0;" parent="1" source="DPu7RmlXeF-RaSwFlGZn-45" target="DPu7RmlXeF-RaSwFlGZn-51" edge="1">
          <mxGeometry width="160" relative="1" as="geometry">
            <mxPoint x="1236" y="-380" as="sourcePoint" />
            <mxPoint x="1396" y="-380" as="targetPoint" />
          </mxGeometry>
        </mxCell>
        <mxCell id="AqGMEElF0sX-npHa-1An-33" value="Table" style="swimlane;fontStyle=1;align=center;verticalAlign=top;childLayout=stackLayout;horizontal=1;startSize=26;horizontalStack=0;resizeParent=1;resizeParentMax=0;resizeLast=0;collapsible=1;marginBottom=0;" parent="1" vertex="1">
          <mxGeometry x="2017" y="-356" width="240" height="242" as="geometry" />
        </mxCell>
        <mxCell id="AqGMEElF0sX-npHa-1An-34" value="- abs : double" style="text;strokeColor=none;fillColor=none;align=left;verticalAlign=top;spacingLeft=4;spacingRight=4;overflow=hidden;rotatable=0;points=[[0,0.5],[1,0.5]];portConstraint=eastwest;" parent="AqGMEElF0sX-npHa-1An-33" vertex="1">
          <mxGeometry y="26" width="240" height="26" as="geometry" />
        </mxCell>
        <mxCell id="AqGMEElF0sX-npHa-1An-35" value="- ord : double" style="text;strokeColor=none;fillColor=none;align=left;verticalAlign=top;spacingLeft=4;spacingRight=4;overflow=hidden;rotatable=0;points=[[0,0.5],[1,0.5]];portConstraint=eastwest;" parent="AqGMEElF0sX-npHa-1An-33" vertex="1">
          <mxGeometry y="52" width="240" height="26" as="geometry" />
        </mxCell>
        <mxCell id="AqGMEElF0sX-npHa-1An-36" value="- capacity : int" style="text;strokeColor=none;fillColor=none;align=left;verticalAlign=top;spacingLeft=4;spacingRight=4;overflow=hidden;rotatable=0;points=[[0,0.5],[1,0.5]];portConstraint=eastwest;" parent="AqGMEElF0sX-npHa-1An-33" vertex="1">
          <mxGeometry y="78" width="240" height="26" as="geometry" />
        </mxCell>
        <mxCell id="AqGMEElF0sX-npHa-1An-37" value="- occuped : int" style="text;strokeColor=none;fillColor=none;align=left;verticalAlign=top;spacingLeft=4;spacingRight=4;overflow=hidden;rotatable=0;points=[[0,0.5],[1,0.5]];portConstraint=eastwest;" parent="AqGMEElF0sX-npHa-1An-33" vertex="1">
          <mxGeometry y="104" width="240" height="26" as="geometry" />
        </mxCell>
        <mxCell id="AqGMEElF0sX-npHa-1An-38" value="- clientList : Client[]" style="text;strokeColor=none;fillColor=none;align=left;verticalAlign=top;spacingLeft=4;spacingRight=4;overflow=hidden;rotatable=0;points=[[0,0.5],[1,0.5]];portConstraint=eastwest;" parent="AqGMEElF0sX-npHa-1An-33" vertex="1">
          <mxGeometry y="130" width="240" height="26" as="geometry" />
        </mxCell>
        <mxCell id="AqGMEElF0sX-npHa-1An-39" value="- breadCartNeeded : int" style="text;strokeColor=none;fillColor=none;align=left;verticalAlign=top;spacingLeft=4;spacingRight=4;overflow=hidden;rotatable=0;points=[[0,0.5],[1,0.5]];portConstraint=eastwest;" parent="AqGMEElF0sX-npHa-1An-33" vertex="1">
          <mxGeometry y="156" width="240" height="26" as="geometry" />
        </mxCell>
        <mxCell id="AqGMEElF0sX-npHa-1An-40" value="" style="line;strokeWidth=1;fillColor=none;align=left;verticalAlign=middle;spacingTop=-1;spacingLeft=3;spacingRight=3;rotatable=0;labelPosition=right;points=[];portConstraint=eastwest;strokeColor=inherit;" parent="AqGMEElF0sX-npHa-1An-33" vertex="1">
          <mxGeometry y="182" width="240" height="8" as="geometry" />
        </mxCell>
        <mxCell id="AqGMEElF0sX-npHa-1An-41" value="+ addClientsToTable(Client[] clients): void" style="text;strokeColor=none;fillColor=none;align=left;verticalAlign=top;spacingLeft=4;spacingRight=4;overflow=hidden;rotatable=0;points=[[0,0.5],[1,0.5]];portConstraint=eastwest;" parent="AqGMEElF0sX-npHa-1An-33" vertex="1">
          <mxGeometry y="190" width="240" height="26" as="geometry" />
        </mxCell>
        <mxCell id="tpwpmRQDAEHqeeHJi2B8-54" value="+ releaseClients(): void" style="text;strokeColor=none;fillColor=none;align=left;verticalAlign=top;spacingLeft=4;spacingRight=4;overflow=hidden;rotatable=0;points=[[0,0.5],[1,0.5]];portConstraint=eastwest;" parent="AqGMEElF0sX-npHa-1An-33" vertex="1">
          <mxGeometry y="216" width="240" height="26" as="geometry" />
        </mxCell>
        <mxCell id="AqGMEElF0sX-npHa-1An-42" value="TableFactory" style="swimlane;fontStyle=1;align=center;verticalAlign=top;childLayout=stackLayout;horizontal=1;startSize=26;horizontalStack=0;resizeParent=1;resizeParentMax=0;resizeLast=0;collapsible=1;marginBottom=0;" parent="1" vertex="1">
          <mxGeometry x="2100" y="-54" width="210" height="86" as="geometry" />
        </mxCell>
        <mxCell id="AqGMEElF0sX-npHa-1An-43" value="+ field: type" style="text;strokeColor=none;fillColor=none;align=left;verticalAlign=top;spacingLeft=4;spacingRight=4;overflow=hidden;rotatable=0;points=[[0,0.5],[1,0.5]];portConstraint=eastwest;" parent="AqGMEElF0sX-npHa-1An-42" vertex="1">
          <mxGeometry y="26" width="210" height="26" as="geometry" />
        </mxCell>
        <mxCell id="AqGMEElF0sX-npHa-1An-44" value="" style="line;strokeWidth=1;fillColor=none;align=left;verticalAlign=middle;spacingTop=-1;spacingLeft=3;spacingRight=3;rotatable=0;labelPosition=right;points=[];portConstraint=eastwest;strokeColor=inherit;" parent="AqGMEElF0sX-npHa-1An-42" vertex="1">
          <mxGeometry y="52" width="210" height="8" as="geometry" />
        </mxCell>
        <mxCell id="AqGMEElF0sX-npHa-1An-45" value="+ createTable(int places): void" style="text;strokeColor=none;fillColor=none;align=left;verticalAlign=top;spacingLeft=4;spacingRight=4;overflow=hidden;rotatable=0;points=[[0,0.5],[1,0.5]];portConstraint=eastwest;" parent="AqGMEElF0sX-npHa-1An-42" vertex="1">
          <mxGeometry y="60" width="210" height="26" as="geometry" />
        </mxCell>
        <mxCell id="AqGMEElF0sX-npHa-1An-46" value="" style="endArrow=open;endSize=12;dashed=1;html=1;rounded=0;exitX=0.5;exitY=0;exitDx=0;exitDy=0;entryX=0.787;entryY=1.029;entryDx=0;entryDy=0;entryPerimeter=0;" parent="1" source="AqGMEElF0sX-npHa-1An-42" target="tpwpmRQDAEHqeeHJi2B8-54" edge="1">
          <mxGeometry width="160" relative="1" as="geometry">
            <mxPoint x="2720" y="-326" as="sourcePoint" />
            <mxPoint x="2880" y="-326" as="targetPoint" />
          </mxGeometry>
        </mxCell>
        <mxCell id="AqGMEElF0sX-npHa-1An-49" value="KitchenModel" style="swimlane;fontStyle=1;align=center;verticalAlign=top;childLayout=stackLayout;horizontal=1;startSize=26;horizontalStack=0;resizeParent=1;resizeParentMax=0;resizeLast=0;collapsible=1;marginBottom=0;" parent="1" vertex="1">
          <mxGeometry x="965" y="-1184" width="234" height="86" as="geometry" />
        </mxCell>
        <mxCell id="AqGMEElF0sX-npHa-1An-50" value="- attribute : type" style="text;strokeColor=none;fillColor=none;align=left;verticalAlign=top;spacingLeft=4;spacingRight=4;overflow=hidden;rotatable=0;points=[[0,0.5],[1,0.5]];portConstraint=eastwest;" parent="AqGMEElF0sX-npHa-1An-49" vertex="1">
          <mxGeometry y="26" width="234" height="26" as="geometry" />
        </mxCell>
        <mxCell id="AqGMEElF0sX-npHa-1An-51" value="" style="line;strokeWidth=1;fillColor=none;align=left;verticalAlign=middle;spacingTop=-1;spacingLeft=3;spacingRight=3;rotatable=0;labelPosition=right;points=[];portConstraint=eastwest;strokeColor=inherit;" parent="AqGMEElF0sX-npHa-1An-49" vertex="1">
          <mxGeometry y="52" width="234" height="8" as="geometry" />
        </mxCell>
        <mxCell id="AqGMEElF0sX-npHa-1An-52" value="+ method(type): type" style="text;strokeColor=none;fillColor=none;align=left;verticalAlign=top;spacingLeft=4;spacingRight=4;overflow=hidden;rotatable=0;points=[[0,0.5],[1,0.5]];portConstraint=eastwest;" parent="AqGMEElF0sX-npHa-1An-49" vertex="1">
          <mxGeometry y="60" width="234" height="26" as="geometry" />
        </mxCell>
        <mxCell id="tpwpmRQDAEHqeeHJi2B8-3" value="1" style="endArrow=open;html=1;endSize=12;startArrow=diamondThin;startSize=14;startFill=0;align=left;verticalAlign=bottom;rounded=0;entryX=1.013;entryY=1.082;entryDx=0;entryDy=0;entryPerimeter=0;edgeStyle=orthogonalEdgeStyle;curved=1;exitX=0.002;exitY=0.129;exitDx=0;exitDy=0;exitPerimeter=0;" parent="1" source="DPu7RmlXeF-RaSwFlGZn-20" target="RDhP8_hSbDgLvopPwKMN-3" edge="1">
          <mxGeometry x="-1" y="3" relative="1" as="geometry">
            <mxPoint x="380" y="-379" as="sourcePoint" />
            <mxPoint x="220" y="-379" as="targetPoint" />
            <Array as="points">
              <mxPoint x="560" y="-277" />
              <mxPoint x="560" y="-144" />
              <mxPoint x="263" y="-144" />
              <mxPoint x="263" y="-280" />
            </Array>
          </mxGeometry>
        </mxCell>
        <mxCell id="tpwpmRQDAEHqeeHJi2B8-4" value="1" style="endArrow=open;html=1;endSize=12;startArrow=diamondThin;startSize=14;startFill=0;align=left;verticalAlign=bottom;rounded=0;exitX=1;exitY=0.5;exitDx=0;exitDy=0;entryX=-0.013;entryY=0.386;entryDx=0;entryDy=0;entryPerimeter=0;" parent="1" source="DPu7RmlXeF-RaSwFlGZn-69" target="DPu7RmlXeF-RaSwFlGZn-17" edge="1">
          <mxGeometry x="-1" y="3" relative="1" as="geometry">
            <mxPoint x="577" y="-379" as="sourcePoint" />
            <mxPoint x="737" y="-379" as="targetPoint" />
          </mxGeometry>
        </mxCell>
        <mxCell id="tpwpmRQDAEHqeeHJi2B8-5" value="1" style="endArrow=open;html=1;endSize=12;startArrow=diamondThin;startSize=14;startFill=0;align=left;verticalAlign=bottom;rounded=0;exitX=1;exitY=0.5;exitDx=0;exitDy=0;entryX=0.5;entryY=0;entryDx=0;entryDy=0;edgeStyle=orthogonalEdgeStyle;curved=1;" parent="1" source="DPu7RmlXeF-RaSwFlGZn-25" target="DPu7RmlXeF-RaSwFlGZn-13" edge="1">
          <mxGeometry x="-1" y="3" relative="1" as="geometry">
            <mxPoint x="643.0000000000002" y="-562.0399999999998" as="sourcePoint" />
            <mxPoint x="790.6600000000001" y="-563.0040000000002" as="targetPoint" />
          </mxGeometry>
        </mxCell>
        <mxCell id="tpwpmRQDAEHqeeHJi2B8-6" value="1" style="endArrow=open;html=1;endSize=12;startArrow=diamondThin;startSize=14;startFill=0;edgeStyle=orthogonalEdgeStyle;align=left;verticalAlign=bottom;rounded=0;curved=1;entryX=0.5;entryY=0;entryDx=0;entryDy=0;" parent="1" source="tyf2pBnSicJyKzuXMppc-28" target="DPu7RmlXeF-RaSwFlGZn-65" edge="1">
          <mxGeometry x="-1" y="3" relative="1" as="geometry">
            <mxPoint x="150" y="-581" as="sourcePoint" />
            <mxPoint x="310" y="-581" as="targetPoint" />
          </mxGeometry>
        </mxCell>
        <mxCell id="tpwpmRQDAEHqeeHJi2B8-7" value="DirtyDishesStorage" style="swimlane;fontStyle=0;childLayout=stackLayout;horizontal=1;startSize=26;fillColor=none;horizontalStack=0;resizeParent=1;resizeParentMax=0;resizeLast=0;collapsible=1;marginBottom=0;whiteSpace=wrap;html=1;" parent="1" vertex="1">
          <mxGeometry x="754" y="318" width="478" height="292" as="geometry" />
        </mxCell>
        <mxCell id="tpwpmRQDAEHqeeHJi2B8-8" value="- dirtyPlatesNumber: int" style="text;strokeColor=none;fillColor=none;align=left;verticalAlign=top;spacingLeft=4;spacingRight=4;overflow=hidden;rotatable=0;points=[[0,0.5],[1,0.5]];portConstraint=eastwest;whiteSpace=wrap;html=1;" parent="tpwpmRQDAEHqeeHJi2B8-7" vertex="1">
          <mxGeometry y="26" width="478" height="26" as="geometry" />
        </mxCell>
        <mxCell id="tpwpmRQDAEHqeeHJi2B8-9" value="- dirtyGlassesNumber: int" style="text;strokeColor=none;fillColor=none;align=left;verticalAlign=top;spacingLeft=4;spacingRight=4;overflow=hidden;rotatable=0;points=[[0,0.5],[1,0.5]];portConstraint=eastwest;whiteSpace=wrap;html=1;" parent="tpwpmRQDAEHqeeHJi2B8-7" vertex="1">
          <mxGeometry y="52" width="478" height="26" as="geometry" />
        </mxCell>
        <mxCell id="tpwpmRQDAEHqeeHJi2B8-10" value="- dirtyCutleryNumber: int" style="text;strokeColor=none;fillColor=none;align=left;verticalAlign=top;spacingLeft=4;spacingRight=4;overflow=hidden;rotatable=0;points=[[0,0.5],[1,0.5]];portConstraint=eastwest;whiteSpace=wrap;html=1;" parent="tpwpmRQDAEHqeeHJi2B8-7" vertex="1">
          <mxGeometry y="78" width="478" height="26" as="geometry" />
        </mxCell>
        <mxCell id="tpwpmRQDAEHqeeHJi2B8-11" value="+ sentToDishWasher(int platesNumber, int glassesNumber, int cutlery number): void" style="text;strokeColor=none;fillColor=none;align=left;verticalAlign=top;spacingLeft=4;spacingRight=4;overflow=hidden;rotatable=0;points=[[0,0.5],[1,0.5]];portConstraint=eastwest;whiteSpace=wrap;html=1;" parent="tpwpmRQDAEHqeeHJi2B8-7" vertex="1">
          <mxGeometry y="104" width="478" height="32" as="geometry" />
        </mxCell>
        <mxCell id="tpwpmRQDAEHqeeHJi2B8-12" value="+ getDirtyPlatesNumber(): int" style="text;strokeColor=none;fillColor=none;align=left;verticalAlign=top;spacingLeft=4;spacingRight=4;overflow=hidden;rotatable=0;points=[[0,0.5],[1,0.5]];portConstraint=eastwest;whiteSpace=wrap;html=1;" parent="tpwpmRQDAEHqeeHJi2B8-7" vertex="1">
          <mxGeometry y="136" width="478" height="26" as="geometry" />
        </mxCell>
        <mxCell id="tpwpmRQDAEHqeeHJi2B8-13" value="+ getDirtyGlassesNumber(): int" style="text;strokeColor=none;fillColor=none;align=left;verticalAlign=top;spacingLeft=4;spacingRight=4;overflow=hidden;rotatable=0;points=[[0,0.5],[1,0.5]];portConstraint=eastwest;whiteSpace=wrap;html=1;" parent="tpwpmRQDAEHqeeHJi2B8-7" vertex="1">
          <mxGeometry y="162" width="478" height="26" as="geometry" />
        </mxCell>
        <mxCell id="tpwpmRQDAEHqeeHJi2B8-14" value="+ getDrityCutleryNumber(): int" style="text;strokeColor=none;fillColor=none;align=left;verticalAlign=top;spacingLeft=4;spacingRight=4;overflow=hidden;rotatable=0;points=[[0,0.5],[1,0.5]];portConstraint=eastwest;whiteSpace=wrap;html=1;" parent="tpwpmRQDAEHqeeHJi2B8-7" vertex="1">
          <mxGeometry y="188" width="478" height="26" as="geometry" />
        </mxCell>
        <mxCell id="tpwpmRQDAEHqeeHJi2B8-15" value="+ setDirtyCutleryNumber(int cutleryNumber): void" style="text;strokeColor=none;fillColor=none;align=left;verticalAlign=top;spacingLeft=4;spacingRight=4;overflow=hidden;rotatable=0;points=[[0,0.5],[1,0.5]];portConstraint=eastwest;whiteSpace=wrap;html=1;" parent="tpwpmRQDAEHqeeHJi2B8-7" vertex="1">
          <mxGeometry y="214" width="478" height="26" as="geometry" />
        </mxCell>
        <mxCell id="tpwpmRQDAEHqeeHJi2B8-16" value="+ setDirtyGlassesNumber(int glassesNumber): void" style="text;strokeColor=none;fillColor=none;align=left;verticalAlign=top;spacingLeft=4;spacingRight=4;overflow=hidden;rotatable=0;points=[[0,0.5],[1,0.5]];portConstraint=eastwest;whiteSpace=wrap;html=1;" parent="tpwpmRQDAEHqeeHJi2B8-7" vertex="1">
          <mxGeometry y="240" width="478" height="26" as="geometry" />
        </mxCell>
        <mxCell id="tpwpmRQDAEHqeeHJi2B8-17" value="+ setDirtyplatesNumber(int platesNumber): void" style="text;strokeColor=none;fillColor=none;align=left;verticalAlign=top;spacingLeft=4;spacingRight=4;overflow=hidden;rotatable=0;points=[[0,0.5],[1,0.5]];portConstraint=eastwest;whiteSpace=wrap;html=1;" parent="tpwpmRQDAEHqeeHJi2B8-7" vertex="1">
          <mxGeometry y="266" width="478" height="26" as="geometry" />
        </mxCell>
        <mxCell id="tpwpmRQDAEHqeeHJi2B8-18" value="" style="endArrow=open;endSize=12;dashed=1;html=1;rounded=0;entryX=1.003;entryY=0.114;entryDx=0;entryDy=0;entryPerimeter=0;" parent="1" source="tpwpmRQDAEHqeeHJi2B8-24" target="tpwpmRQDAEHqeeHJi2B8-15" edge="1">
          <mxGeometry width="160" relative="1" as="geometry">
            <mxPoint x="1196" y="534" as="sourcePoint" />
            <mxPoint x="1036" y="534" as="targetPoint" />
          </mxGeometry>
        </mxCell>
        <mxCell id="tpwpmRQDAEHqeeHJi2B8-19" value="RestaurantDiver" style="swimlane;fontStyle=1;align=center;verticalAlign=top;childLayout=stackLayout;horizontal=1;startSize=26;horizontalStack=0;resizeParent=1;resizeParentMax=0;resizeLast=0;collapsible=1;marginBottom=0;whiteSpace=wrap;html=1;" parent="1" vertex="1">
          <mxGeometry x="1457" y="413" width="180" height="190" as="geometry" />
        </mxCell>
        <mxCell id="tpwpmRQDAEHqeeHJi2B8-20" value="- didisto: DirtyDishesStorage" style="text;strokeColor=none;fillColor=none;align=left;verticalAlign=top;spacingLeft=4;spacingRight=4;overflow=hidden;rotatable=0;points=[[0,0.5],[1,0.5]];portConstraint=eastwest;whiteSpace=wrap;html=1;" parent="tpwpmRQDAEHqeeHJi2B8-19" vertex="1">
          <mxGeometry y="26" width="180" height="26" as="geometry" />
        </mxCell>
        <mxCell id="tpwpmRQDAEHqeeHJi2B8-21" value="- washmach : WashingMachine" style="text;strokeColor=none;fillColor=none;align=left;verticalAlign=top;spacingLeft=4;spacingRight=4;overflow=hidden;rotatable=0;points=[[0,0.5],[1,0.5]];portConstraint=eastwest;whiteSpace=wrap;html=1;" parent="tpwpmRQDAEHqeeHJi2B8-19" vertex="1">
          <mxGeometry y="52" width="180" height="26" as="geometry" />
        </mxCell>
        <mxCell id="tpwpmRQDAEHqeeHJi2B8-22" value="- diwash: Dishwasher" style="text;strokeColor=none;fillColor=none;align=left;verticalAlign=top;spacingLeft=4;spacingRight=4;overflow=hidden;rotatable=0;points=[[0,0.5],[1,0.5]];portConstraint=eastwest;whiteSpace=wrap;html=1;" parent="tpwpmRQDAEHqeeHJi2B8-19" vertex="1">
          <mxGeometry y="78" width="180" height="26" as="geometry" />
        </mxCell>
        <mxCell id="tpwpmRQDAEHqeeHJi2B8-23" value="" style="line;strokeWidth=1;fillColor=none;align=left;verticalAlign=middle;spacingTop=-1;spacingLeft=3;spacingRight=3;rotatable=0;labelPosition=right;points=[];portConstraint=eastwest;strokeColor=inherit;" parent="tpwpmRQDAEHqeeHJi2B8-19" vertex="1">
          <mxGeometry y="104" width="180" height="8" as="geometry" />
        </mxCell>
        <mxCell id="tpwpmRQDAEHqeeHJi2B8-24" value="+ getDirtyDishes ( ): void" style="text;strokeColor=none;fillColor=none;align=left;verticalAlign=top;spacingLeft=4;spacingRight=4;overflow=hidden;rotatable=0;points=[[0,0.5],[1,0.5]];portConstraint=eastwest;whiteSpace=wrap;html=1;" parent="tpwpmRQDAEHqeeHJi2B8-19" vertex="1">
          <mxGeometry y="112" width="180" height="26" as="geometry" />
        </mxCell>
        <mxCell id="tpwpmRQDAEHqeeHJi2B8-25" value="+washDishes ( ): void" style="text;strokeColor=none;fillColor=none;align=left;verticalAlign=top;spacingLeft=4;spacingRight=4;overflow=hidden;rotatable=0;points=[[0,0.5],[1,0.5]];portConstraint=eastwest;whiteSpace=wrap;html=1;" parent="tpwpmRQDAEHqeeHJi2B8-19" vertex="1">
          <mxGeometry y="138" width="180" height="26" as="geometry" />
        </mxCell>
        <mxCell id="tpwpmRQDAEHqeeHJi2B8-26" value="+ getwashedDishes ( ): void" style="text;strokeColor=none;fillColor=none;align=left;verticalAlign=top;spacingLeft=4;spacingRight=4;overflow=hidden;rotatable=0;points=[[0,0.5],[1,0.5]];portConstraint=eastwest;whiteSpace=wrap;html=1;" parent="tpwpmRQDAEHqeeHJi2B8-19" vertex="1">
          <mxGeometry y="164" width="180" height="26" as="geometry" />
        </mxCell>
        <mxCell id="tpwpmRQDAEHqeeHJi2B8-28" value="" style="endArrow=open;endSize=12;dashed=1;html=1;rounded=0;curved=1;edgeStyle=orthogonalEdgeStyle;exitX=0.537;exitY=0.002;exitDx=0;exitDy=0;exitPerimeter=0;entryX=0.424;entryY=0.965;entryDx=0;entryDy=0;entryPerimeter=0;" parent="1" source="tpwpmRQDAEHqeeHJi2B8-19" target="RDhP8_hSbDgLvopPwKMN-40" edge="1">
          <mxGeometry width="160" relative="1" as="geometry">
            <mxPoint x="1566.3334147135417" y="403" as="sourcePoint" />
            <mxPoint x="723" y="85" as="targetPoint" />
          </mxGeometry>
        </mxCell>
        <mxCell id="tpwpmRQDAEHqeeHJi2B8-29" value="1" style="endArrow=open;html=1;endSize=12;startArrow=diamondThin;startSize=14;startFill=0;edgeStyle=orthogonalEdgeStyle;align=left;verticalAlign=bottom;rounded=0;curved=1;entryX=0;entryY=0.5;entryDx=0;entryDy=0;" parent="1" source="tyf2pBnSicJyKzuXMppc-11" target="AqGMEElF0sX-npHa-1An-36" edge="1">
          <mxGeometry x="-1" y="3" relative="1" as="geometry">
            <mxPoint x="1839" y="-267" as="sourcePoint" />
            <mxPoint x="1999" y="-267" as="targetPoint" />
          </mxGeometry>
        </mxCell>
        <mxCell id="tpwpmRQDAEHqeeHJi2B8-31" value="" style="endArrow=open;endSize=12;dashed=1;html=1;rounded=0;curved=1;exitX=0;exitY=0.5;exitDx=0;exitDy=0;edgeStyle=orthogonalEdgeStyle;" parent="1" source="tpwpmRQDAEHqeeHJi2B8-30" target="tyf2pBnSicJyKzuXMppc-20" edge="1">
          <mxGeometry width="160" relative="1" as="geometry">
            <mxPoint x="-465" y="-662" as="sourcePoint" />
            <mxPoint x="-305" y="-662" as="targetPoint" />
          </mxGeometry>
        </mxCell>
        <mxCell id="tpwpmRQDAEHqeeHJi2B8-33" value="1" style="endArrow=open;html=1;endSize=12;startArrow=diamondThin;startSize=14;startFill=0;edgeStyle=orthogonalEdgeStyle;align=left;verticalAlign=bottom;rounded=0;curved=1;" parent="1" source="DPu7RmlXeF-RaSwFlGZn-75" target="DPu7RmlXeF-RaSwFlGZn-65" edge="1">
          <mxGeometry x="-1" y="3" relative="1" as="geometry">
            <mxPoint x="238" y="-723" as="sourcePoint" />
            <mxPoint x="410" y="-412" as="targetPoint" />
          </mxGeometry>
        </mxCell>
        <mxCell id="tpwpmRQDAEHqeeHJi2B8-34" value="" style="endArrow=open;endSize=12;dashed=1;html=1;rounded=0;curved=1;edgeStyle=orthogonalEdgeStyle;exitX=0.709;exitY=1.014;exitDx=0;exitDy=0;exitPerimeter=0;" parent="1" source="DPu7RmlXeF-RaSwFlGZn-68" target="DPu7RmlXeF-RaSwFlGZn-41" edge="1">
          <mxGeometry x="-0.0202" y="-5" width="160" relative="1" as="geometry">
            <mxPoint x="360" y="-213" as="sourcePoint" />
            <mxPoint x="642" y="-218" as="targetPoint" />
            <mxPoint as="offset" />
          </mxGeometry>
        </mxCell>
        <mxCell id="tpwpmRQDAEHqeeHJi2B8-35" value="1" style="endArrow=open;html=1;endSize=12;startArrow=diamondThin;startSize=14;startFill=0;align=left;verticalAlign=bottom;rounded=0;exitX=0.219;exitY=0.984;exitDx=0;exitDy=0;exitPerimeter=0;" parent="1" source="DPu7RmlXeF-RaSwFlGZn-88" target="DPu7RmlXeF-RaSwFlGZn-65" edge="1">
          <mxGeometry x="-1" y="3" relative="1" as="geometry">
            <mxPoint x="405" y="-966" as="sourcePoint" />
            <mxPoint x="377" y="-417" as="targetPoint" />
          </mxGeometry>
        </mxCell>
        <mxCell id="tpwpmRQDAEHqeeHJi2B8-36" value="" style="endArrow=open;endSize=12;dashed=1;html=1;rounded=0;entryX=0.486;entryY=-0.002;entryDx=0;entryDy=0;entryPerimeter=0;" parent="1" target="DPu7RmlXeF-RaSwFlGZn-22" edge="1">
          <mxGeometry width="160" relative="1" as="geometry">
            <mxPoint x="549" y="-978" as="sourcePoint" />
            <mxPoint x="716" y="-964" as="targetPoint" />
          </mxGeometry>
        </mxCell>
        <mxCell id="tpwpmRQDAEHqeeHJi2B8-41" value="1" style="endArrow=open;html=1;endSize=12;startArrow=diamondThin;startSize=14;startFill=0;align=left;verticalAlign=bottom;rounded=0;exitX=1;exitY=0.5;exitDx=0;exitDy=0;entryX=0;entryY=0.5;entryDx=0;entryDy=0;" parent="1" source="tyf2pBnSicJyKzuXMppc-23" target="DPu7RmlXeF-RaSwFlGZn-66" edge="1">
          <mxGeometry x="-1" y="3" relative="1" as="geometry">
            <mxPoint x="-290" y="-422" as="sourcePoint" />
            <mxPoint x="-130" y="-422" as="targetPoint" />
          </mxGeometry>
        </mxCell>
        <mxCell id="tpwpmRQDAEHqeeHJi2B8-42" value="" style="endArrow=open;html=1;endSize=12;startArrow=diamondThin;startSize=14;startFill=0;edgeStyle=orthogonalEdgeStyle;align=left;verticalAlign=bottom;rounded=0;curved=1;" parent="1" source="tpwpmRQDAEHqeeHJi2B8-54" target="DPu7RmlXeF-RaSwFlGZn-44" edge="1">
          <mxGeometry x="-1" y="3" relative="1" as="geometry">
            <mxPoint x="2093" y="-104" as="sourcePoint" />
            <mxPoint x="1630" y="59" as="targetPoint" />
            <Array as="points">
              <mxPoint x="2031" y="150" />
              <mxPoint x="1128" y="150" />
            </Array>
          </mxGeometry>
        </mxCell>
        <mxCell id="tpwpmRQDAEHqeeHJi2B8-43" value="Butler" style="swimlane;fontStyle=1;align=center;verticalAlign=top;childLayout=stackLayout;horizontal=1;startSize=26;horizontalStack=0;resizeParent=1;resizeParentMax=0;resizeLast=0;collapsible=1;marginBottom=0;" parent="1" vertex="1">
          <mxGeometry x="1972" y="-624" width="284" height="138" as="geometry" />
        </mxCell>
        <mxCell id="tpwpmRQDAEHqeeHJi2B8-44" value="+ clientNumber: int" style="text;strokeColor=none;fillColor=none;align=left;verticalAlign=top;spacingLeft=4;spacingRight=4;overflow=hidden;rotatable=0;points=[[0,0.5],[1,0.5]];portConstraint=eastwest;" parent="tpwpmRQDAEHqeeHJi2B8-43" vertex="1">
          <mxGeometry y="26" width="284" height="26" as="geometry" />
        </mxCell>
        <mxCell id="tpwpmRQDAEHqeeHJi2B8-47" value="+ priorityTable: vector&lt;int&gt;" style="text;strokeColor=none;fillColor=none;align=left;verticalAlign=top;spacingLeft=4;spacingRight=4;overflow=hidden;rotatable=0;points=[[0,0.5],[1,0.5]];portConstraint=eastwest;" parent="tpwpmRQDAEHqeeHJi2B8-43" vertex="1">
          <mxGeometry y="52" width="284" height="26" as="geometry" />
        </mxCell>
        <mxCell id="tpwpmRQDAEHqeeHJi2B8-45" value="" style="line;strokeWidth=1;fillColor=none;align=left;verticalAlign=middle;spacingTop=-1;spacingLeft=3;spacingRight=3;rotatable=0;labelPosition=right;points=[];portConstraint=eastwest;strokeColor=inherit;" parent="tpwpmRQDAEHqeeHJi2B8-43" vertex="1">
          <mxGeometry y="78" width="284" height="8" as="geometry" />
        </mxCell>
        <mxCell id="tpwpmRQDAEHqeeHJi2B8-46" value="+ assignTable(): void" style="text;strokeColor=none;fillColor=none;align=left;verticalAlign=top;spacingLeft=4;spacingRight=4;overflow=hidden;rotatable=0;points=[[0,0.5],[1,0.5]];portConstraint=eastwest;" parent="tpwpmRQDAEHqeeHJi2B8-43" vertex="1">
          <mxGeometry y="86" width="284" height="26" as="geometry" />
        </mxCell>
        <mxCell id="tpwpmRQDAEHqeeHJi2B8-48" value="+ notifyHeadwaiter(Table table, Client[] clientsList): void" style="text;strokeColor=none;fillColor=none;align=left;verticalAlign=top;spacingLeft=4;spacingRight=4;overflow=hidden;rotatable=0;points=[[0,0.5],[1,0.5]];portConstraint=eastwest;" parent="tpwpmRQDAEHqeeHJi2B8-43" vertex="1">
          <mxGeometry y="112" width="284" height="26" as="geometry" />
        </mxCell>
        <mxCell id="tpwpmRQDAEHqeeHJi2B8-49" value="ClientGroupCreator" style="swimlane;fontStyle=1;align=center;verticalAlign=top;childLayout=stackLayout;horizontal=1;startSize=26;horizontalStack=0;resizeParent=1;resizeParentMax=0;resizeLast=0;collapsible=1;marginBottom=0;" parent="1" vertex="1">
          <mxGeometry x="1724" y="159" width="160" height="112" as="geometry" />
        </mxCell>
        <mxCell id="tpwpmRQDAEHqeeHJi2B8-50" value="- clientList : Client[]" style="text;strokeColor=none;fillColor=none;align=left;verticalAlign=top;spacingLeft=4;spacingRight=4;overflow=hidden;rotatable=0;points=[[0,0.5],[1,0.5]];portConstraint=eastwest;" parent="tpwpmRQDAEHqeeHJi2B8-49" vertex="1">
          <mxGeometry y="26" width="160" height="26" as="geometry" />
        </mxCell>
        <mxCell id="tpwpmRQDAEHqeeHJi2B8-53" value="- clientNumber : int" style="text;strokeColor=none;fillColor=none;align=left;verticalAlign=top;spacingLeft=4;spacingRight=4;overflow=hidden;rotatable=0;points=[[0,0.5],[1,0.5]];portConstraint=eastwest;" parent="tpwpmRQDAEHqeeHJi2B8-49" vertex="1">
          <mxGeometry y="52" width="160" height="26" as="geometry" />
        </mxCell>
        <mxCell id="tpwpmRQDAEHqeeHJi2B8-51" value="" style="line;strokeWidth=1;fillColor=none;align=left;verticalAlign=middle;spacingTop=-1;spacingLeft=3;spacingRight=3;rotatable=0;labelPosition=right;points=[];portConstraint=eastwest;strokeColor=inherit;" parent="tpwpmRQDAEHqeeHJi2B8-49" vertex="1">
          <mxGeometry y="78" width="160" height="8" as="geometry" />
        </mxCell>
        <mxCell id="tpwpmRQDAEHqeeHJi2B8-52" value="+ createGroupe(): void" style="text;strokeColor=none;fillColor=none;align=left;verticalAlign=top;spacingLeft=4;spacingRight=4;overflow=hidden;rotatable=0;points=[[0,0.5],[1,0.5]];portConstraint=eastwest;" parent="tpwpmRQDAEHqeeHJi2B8-49" vertex="1">
          <mxGeometry y="86" width="160" height="26" as="geometry" />
        </mxCell>
        <mxCell id="tpwpmRQDAEHqeeHJi2B8-55" value="MotionlesElementController" style="swimlane;fontStyle=1;align=center;verticalAlign=top;childLayout=stackLayout;horizontal=1;startSize=26;horizontalStack=0;resizeParent=1;resizeParentMax=0;resizeLast=0;collapsible=1;marginBottom=0;" parent="1" vertex="1">
          <mxGeometry x="2181" y="291" width="249" height="138" as="geometry" />
        </mxCell>
        <mxCell id="tpwpmRQDAEHqeeHJi2B8-56" value="+ didisto: DirtyDishesStorage" style="text;strokeColor=none;fillColor=none;align=left;verticalAlign=top;spacingLeft=4;spacingRight=4;overflow=hidden;rotatable=0;points=[[0,0.5],[1,0.5]];portConstraint=eastwest;" parent="tpwpmRQDAEHqeeHJi2B8-55" vertex="1">
          <mxGeometry y="26" width="249" height="26" as="geometry" />
        </mxCell>
        <mxCell id="tpwpmRQDAEHqeeHJi2B8-60" value="+ washmach: WashinMachine" style="text;strokeColor=none;fillColor=none;align=left;verticalAlign=top;spacingLeft=4;spacingRight=4;overflow=hidden;rotatable=0;points=[[0,0.5],[1,0.5]];portConstraint=eastwest;" parent="tpwpmRQDAEHqeeHJi2B8-55" vertex="1">
          <mxGeometry y="52" width="249" height="26" as="geometry" />
        </mxCell>
        <mxCell id="tpwpmRQDAEHqeeHJi2B8-57" value="" style="line;strokeWidth=1;fillColor=none;align=left;verticalAlign=middle;spacingTop=-1;spacingLeft=3;spacingRight=3;rotatable=0;labelPosition=right;points=[];portConstraint=eastwest;strokeColor=inherit;" parent="tpwpmRQDAEHqeeHJi2B8-55" vertex="1">
          <mxGeometry y="78" width="249" height="8" as="geometry" />
        </mxCell>
        <mxCell id="tpwpmRQDAEHqeeHJi2B8-58" value="+ createAllTable(): void" style="text;strokeColor=none;fillColor=none;align=left;verticalAlign=top;spacingLeft=4;spacingRight=4;overflow=hidden;rotatable=0;points=[[0,0.5],[1,0.5]];portConstraint=eastwest;" parent="tpwpmRQDAEHqeeHJi2B8-55" vertex="1">
          <mxGeometry y="86" width="249" height="26" as="geometry" />
        </mxCell>
        <mxCell id="tpwpmRQDAEHqeeHJi2B8-59" value="+ createKitchenElements(): void" style="text;strokeColor=none;fillColor=none;align=left;verticalAlign=top;spacingLeft=4;spacingRight=4;overflow=hidden;rotatable=0;points=[[0,0.5],[1,0.5]];portConstraint=eastwest;" parent="tpwpmRQDAEHqeeHJi2B8-55" vertex="1">
          <mxGeometry y="112" width="249" height="26" as="geometry" />
        </mxCell>
        <mxCell id="tpwpmRQDAEHqeeHJi2B8-61" value="mainController" style="swimlane;fontStyle=1;align=center;verticalAlign=top;childLayout=stackLayout;horizontal=1;startSize=26;horizontalStack=0;resizeParent=1;resizeParentMax=0;resizeLast=0;collapsible=1;marginBottom=0;" parent="1" vertex="1">
          <mxGeometry x="1820" y="526" width="416" height="190" as="geometry" />
        </mxCell>
        <mxCell id="tpwpmRQDAEHqeeHJi2B8-62" value="- dbcontroller: DBController" style="text;strokeColor=none;fillColor=none;align=left;verticalAlign=top;spacingLeft=4;spacingRight=4;overflow=hidden;rotatable=0;points=[[0,0.5],[1,0.5]];portConstraint=eastwest;" parent="tpwpmRQDAEHqeeHJi2B8-61" vertex="1">
          <mxGeometry y="26" width="416" height="26" as="geometry" />
        </mxCell>
        <mxCell id="tpwpmRQDAEHqeeHJi2B8-65" value="- socketcontroller: SocketController" style="text;strokeColor=none;fillColor=none;align=left;verticalAlign=top;spacingLeft=4;spacingRight=4;overflow=hidden;rotatable=0;points=[[0,0.5],[1,0.5]];portConstraint=eastwest;" parent="tpwpmRQDAEHqeeHJi2B8-61" vertex="1">
          <mxGeometry y="52" width="416" height="26" as="geometry" />
        </mxCell>
        <mxCell id="tpwpmRQDAEHqeeHJi2B8-66" value="- newMotionlessElementController : MotionlesElementController" style="text;strokeColor=none;fillColor=none;align=left;verticalAlign=top;spacingLeft=4;spacingRight=4;overflow=hidden;rotatable=0;points=[[0,0.5],[1,0.5]];portConstraint=eastwest;" parent="tpwpmRQDAEHqeeHJi2B8-61" vertex="1">
          <mxGeometry y="78" width="416" height="26" as="geometry" />
        </mxCell>
        <mxCell id="tpwpmRQDAEHqeeHJi2B8-67" value="- socketcontroller: SocketController" style="text;strokeColor=none;fillColor=none;align=left;verticalAlign=top;spacingLeft=4;spacingRight=4;overflow=hidden;rotatable=0;points=[[0,0.5],[1,0.5]];portConstraint=eastwest;" parent="tpwpmRQDAEHqeeHJi2B8-61" vertex="1">
          <mxGeometry y="104" width="416" height="26" as="geometry" />
        </mxCell>
        <mxCell id="tpwpmRQDAEHqeeHJi2B8-68" value="- mainView: MainViewModel" style="text;strokeColor=none;fillColor=none;align=left;verticalAlign=top;spacingLeft=4;spacingRight=4;overflow=hidden;rotatable=0;points=[[0,0.5],[1,0.5]];portConstraint=eastwest;" parent="tpwpmRQDAEHqeeHJi2B8-61" vertex="1">
          <mxGeometry y="130" width="416" height="26" as="geometry" />
        </mxCell>
        <mxCell id="tpwpmRQDAEHqeeHJi2B8-63" value="" style="line;strokeWidth=1;fillColor=none;align=left;verticalAlign=middle;spacingTop=-1;spacingLeft=3;spacingRight=3;rotatable=0;labelPosition=right;points=[];portConstraint=eastwest;strokeColor=inherit;" parent="tpwpmRQDAEHqeeHJi2B8-61" vertex="1">
          <mxGeometry y="156" width="416" height="8" as="geometry" />
        </mxCell>
        <mxCell id="tpwpmRQDAEHqeeHJi2B8-64" value="+ AllFactoryCreation(): void" style="text;strokeColor=none;fillColor=none;align=left;verticalAlign=top;spacingLeft=4;spacingRight=4;overflow=hidden;rotatable=0;points=[[0,0.5],[1,0.5]];portConstraint=eastwest;" parent="tpwpmRQDAEHqeeHJi2B8-61" vertex="1">
          <mxGeometry y="164" width="416" height="26" as="geometry" />
        </mxCell>
        <mxCell id="tpwpmRQDAEHqeeHJi2B8-69" value="DBController" style="swimlane;fontStyle=1;align=center;verticalAlign=top;childLayout=stackLayout;horizontal=1;startSize=26;horizontalStack=0;resizeParent=1;resizeParentMax=0;resizeLast=0;collapsible=1;marginBottom=0;" parent="1" vertex="1">
          <mxGeometry x="2536" y="506" width="160" height="164" as="geometry" />
        </mxCell>
        <mxCell id="tpwpmRQDAEHqeeHJi2B8-70" value="- DBName : string" style="text;strokeColor=none;fillColor=none;align=left;verticalAlign=top;spacingLeft=4;spacingRight=4;overflow=hidden;rotatable=0;points=[[0,0.5],[1,0.5]];portConstraint=eastwest;" parent="tpwpmRQDAEHqeeHJi2B8-69" vertex="1">
          <mxGeometry y="26" width="160" height="26" as="geometry" />
        </mxCell>
        <mxCell id="tpwpmRQDAEHqeeHJi2B8-73" value="- DBPassword : string" style="text;strokeColor=none;fillColor=none;align=left;verticalAlign=top;spacingLeft=4;spacingRight=4;overflow=hidden;rotatable=0;points=[[0,0.5],[1,0.5]];portConstraint=eastwest;" parent="tpwpmRQDAEHqeeHJi2B8-69" vertex="1">
          <mxGeometry y="52" width="160" height="26" as="geometry" />
        </mxCell>
        <mxCell id="tpwpmRQDAEHqeeHJi2B8-71" value="" style="line;strokeWidth=1;fillColor=none;align=left;verticalAlign=middle;spacingTop=-1;spacingLeft=3;spacingRight=3;rotatable=0;labelPosition=right;points=[];portConstraint=eastwest;strokeColor=inherit;" parent="tpwpmRQDAEHqeeHJi2B8-69" vertex="1">
          <mxGeometry y="78" width="160" height="8" as="geometry" />
        </mxCell>
        <mxCell id="tpwpmRQDAEHqeeHJi2B8-72" value="+ DBConnect(): void" style="text;strokeColor=none;fillColor=none;align=left;verticalAlign=top;spacingLeft=4;spacingRight=4;overflow=hidden;rotatable=0;points=[[0,0.5],[1,0.5]];portConstraint=eastwest;" parent="tpwpmRQDAEHqeeHJi2B8-69" vertex="1">
          <mxGeometry y="86" width="160" height="26" as="geometry" />
        </mxCell>
        <mxCell id="tpwpmRQDAEHqeeHJi2B8-74" value="+ DBDisconnect(): void" style="text;strokeColor=none;fillColor=none;align=left;verticalAlign=top;spacingLeft=4;spacingRight=4;overflow=hidden;rotatable=0;points=[[0,0.5],[1,0.5]];portConstraint=eastwest;" parent="tpwpmRQDAEHqeeHJi2B8-69" vertex="1">
          <mxGeometry y="112" width="160" height="26" as="geometry" />
        </mxCell>
        <mxCell id="tpwpmRQDAEHqeeHJi2B8-75" value="+ makeRequest(): void" style="text;strokeColor=none;fillColor=none;align=left;verticalAlign=top;spacingLeft=4;spacingRight=4;overflow=hidden;rotatable=0;points=[[0,0.5],[1,0.5]];portConstraint=eastwest;" parent="tpwpmRQDAEHqeeHJi2B8-69" vertex="1">
          <mxGeometry y="138" width="160" height="26" as="geometry" />
        </mxCell>
        <mxCell id="tpwpmRQDAEHqeeHJi2B8-76" value="MoveController" style="swimlane;fontStyle=1;align=center;verticalAlign=top;childLayout=stackLayout;horizontal=1;startSize=26;horizontalStack=0;resizeParent=1;resizeParentMax=0;resizeLast=0;collapsible=1;marginBottom=0;" parent="1" vertex="1">
          <mxGeometry x="2374" y="84" width="205" height="112" as="geometry" />
        </mxCell>
        <mxCell id="tpwpmRQDAEHqeeHJi2B8-77" value="+ field: type" style="text;strokeColor=none;fillColor=none;align=left;verticalAlign=top;spacingLeft=4;spacingRight=4;overflow=hidden;rotatable=0;points=[[0,0.5],[1,0.5]];portConstraint=eastwest;" parent="tpwpmRQDAEHqeeHJi2B8-76" vertex="1">
          <mxGeometry y="26" width="205" height="26" as="geometry" />
        </mxCell>
        <mxCell id="tpwpmRQDAEHqeeHJi2B8-78" value="" style="line;strokeWidth=1;fillColor=none;align=left;verticalAlign=middle;spacingTop=-1;spacingLeft=3;spacingRight=3;rotatable=0;labelPosition=right;points=[];portConstraint=eastwest;strokeColor=inherit;" parent="tpwpmRQDAEHqeeHJi2B8-76" vertex="1">
          <mxGeometry y="52" width="205" height="8" as="geometry" />
        </mxCell>
        <mxCell id="tpwpmRQDAEHqeeHJi2B8-79" value="+ moveServer(server, [coord]): void" style="text;strokeColor=none;fillColor=none;align=left;verticalAlign=top;spacingLeft=4;spacingRight=4;overflow=hidden;rotatable=0;points=[[0,0.5],[1,0.5]];portConstraint=eastwest;" parent="tpwpmRQDAEHqeeHJi2B8-76" vertex="1">
          <mxGeometry y="60" width="205" height="26" as="geometry" />
        </mxCell>
        <mxCell id="tpwpmRQDAEHqeeHJi2B8-80" value="--- autres methodes ---" style="text;strokeColor=none;fillColor=none;align=left;verticalAlign=top;spacingLeft=4;spacingRight=4;overflow=hidden;rotatable=0;points=[[0,0.5],[1,0.5]];portConstraint=eastwest;" parent="tpwpmRQDAEHqeeHJi2B8-76" vertex="1">
          <mxGeometry y="86" width="205" height="26" as="geometry" />
        </mxCell>
        <mxCell id="tpwpmRQDAEHqeeHJi2B8-81" value="CharacterController" style="swimlane;fontStyle=1;align=center;verticalAlign=top;childLayout=stackLayout;horizontal=1;startSize=26;horizontalStack=0;resizeParent=1;resizeParentMax=0;resizeLast=0;collapsible=1;marginBottom=0;" parent="1" vertex="1">
          <mxGeometry x="2719" y="229" width="160" height="112" as="geometry" />
        </mxCell>
        <mxCell id="tpwpmRQDAEHqeeHJi2B8-82" value="- chief: ChiefModel" style="text;strokeColor=none;fillColor=none;align=left;verticalAlign=top;spacingLeft=4;spacingRight=4;overflow=hidden;rotatable=0;points=[[0,0.5],[1,0.5]];portConstraint=eastwest;" parent="tpwpmRQDAEHqeeHJi2B8-81" vertex="1">
          <mxGeometry y="26" width="160" height="26" as="geometry" />
        </mxCell>
        <mxCell id="tpwpmRQDAEHqeeHJi2B8-85" value="--- autres persos ---" style="text;strokeColor=none;fillColor=none;align=left;verticalAlign=top;spacingLeft=4;spacingRight=4;overflow=hidden;rotatable=0;points=[[0,0.5],[1,0.5]];portConstraint=eastwest;" parent="tpwpmRQDAEHqeeHJi2B8-81" vertex="1">
          <mxGeometry y="52" width="160" height="26" as="geometry" />
        </mxCell>
        <mxCell id="tpwpmRQDAEHqeeHJi2B8-83" value="" style="line;strokeWidth=1;fillColor=none;align=left;verticalAlign=middle;spacingTop=-1;spacingLeft=3;spacingRight=3;rotatable=0;labelPosition=right;points=[];portConstraint=eastwest;strokeColor=inherit;" parent="tpwpmRQDAEHqeeHJi2B8-81" vertex="1">
          <mxGeometry y="78" width="160" height="8" as="geometry" />
        </mxCell>
        <mxCell id="tpwpmRQDAEHqeeHJi2B8-84" value="+ method(type): type" style="text;strokeColor=none;fillColor=none;align=left;verticalAlign=top;spacingLeft=4;spacingRight=4;overflow=hidden;rotatable=0;points=[[0,0.5],[1,0.5]];portConstraint=eastwest;" parent="tpwpmRQDAEHqeeHJi2B8-81" vertex="1">
          <mxGeometry y="86" width="160" height="26" as="geometry" />
        </mxCell>
      </root>
    </mxGraphModel>
  </diagram>
</mxfile>
